<svg xmlns="http://www.w3.org/2000/svg" width="116.835" height="116.835" viewBox="0 0 116.835 116.835">
  <g id="Group_7" data-name="Group 7" transform="translate(-364.059 -73.094) rotate(45)">
    <path id="Path_11" data-name="Path 11" d="M368.423-146.434h31.823V-265.052H368.423Zm5-113.618h21.823v10.2h-7.389v5h7.389v8.649h-7.389v5h7.389v8.649h-7.389v5h7.389v8.649h-7.389v5h7.389v8.649h-7.389v5h7.389v8.648h-7.389v5h7.389v8.649h-7.389v5h7.389v11.521H373.423Z" fill="#fff"/>
    <path id="Path_12" data-name="Path 12" d="M325.025-189.832h39v-5h-34v-5.488h34v-3h-34v-5.357h34v-3h-34v-4.978h34v-5h-39Z" fill="#fff"/>
    <path id="Path_13" data-name="Path 13" d="M428.771-221.655h-23.2v5h21.948l16.8,9.014v3.8l-16.8,9.014H405.567v5h23.2l29.66-15.912Z" fill="#fff"/>
    <rect id="Rectangle_23" data-name="Rectangle 23" width="22.431" height="3" transform="translate(405.567 -211.677)" fill="#fff"/>
    <rect id="Rectangle_24" data-name="Rectangle 24" width="22.431" height="3" transform="translate(405.567 -203.32)" fill="#fff"/>
  </g>
</svg>
