<svg xmlns="http://www.w3.org/2000/svg" width="143.71" height="107.139" viewBox="0 0 143.71 107.139">
  <g id="Group_5" data-name="Group 5" transform="translate(-403.843 -172.175)">
    <path id="Path_3" data-name="Path 3" d="M532.541,264.407a34.881,34.881,0,0,0,7.637-21.644c0-20.155-17.627-36.552-39.293-36.552s-39.293,16.4-39.293,36.552,17.627,36.551,39.293,36.551h46.668Zm-64.949-21.644c0-16.846,14.935-30.552,33.293-30.552s33.293,13.706,33.293,30.552a29.105,29.105,0,0,1-7.927,19.771l-1.97,2.126L533,273.314H500.885C482.527,273.314,467.592,259.609,467.592,242.763Z" fill="#fff"/>
    <path id="Path_4" data-name="Path 4" d="M451.687,239.278H420.75l8.214-8.157-2.288-2.468a28.618,28.618,0,0,1-7.8-19.442c0-16.579,14.718-30.068,32.809-30.068,16.671,0,30.468,11.458,32.532,26.23a45.1,45.1,0,0,1,6.739-2.042c-3.035-17.636-19.487-31.156-39.271-31.156-21.934,0-39.778,16.614-39.778,37.036a35.322,35.322,0,0,0,7.475,21.6l-15.541,15.433h47.844a42.889,42.889,0,0,0,6.071-.431c-.081-1.009-.135-2.025-.135-3.053a38.193,38.193,0,0,1,.214-4.022A35.74,35.74,0,0,1,451.687,239.278Z" fill="#fff"/>
    <circle id="Ellipse_7" data-name="Ellipse 7" cx="3.848" cy="3.848" r="3.848" transform="translate(484.82 238.375)" fill="#fff"/>
    <circle id="Ellipse_8" data-name="Ellipse 8" cx="3.848" cy="3.848" r="3.848" transform="translate(498.021 238.375)" fill="#fff"/>
    <path id="Path_5" data-name="Path 5" d="M515.069,238.375a3.848,3.848,0,1,0,3.848,3.848A3.848,3.848,0,0,0,515.069,238.375Z" fill="#fff"/>
    <path id="Path_6" data-name="Path 6" d="M434.987,207.806a3.848,3.848,0,1,0,3.847-3.847A3.847,3.847,0,0,0,434.987,207.806Z" fill="#fff"/>
    <path id="Path_7" data-name="Path 7" d="M448.187,207.806a3.848,3.848,0,1,0,3.848-3.847A3.848,3.848,0,0,0,448.187,207.806Z" fill="#fff"/>
    <path id="Path_8" data-name="Path 8" d="M465.236,211.654a3.848,3.848,0,1,0-3.848-3.848A3.847,3.847,0,0,0,465.236,211.654Z" fill="#fff"/>
  </g>
</svg>
