<svg xmlns="http://www.w3.org/2000/svg" width="131.325" height="99.234" viewBox="0 0 131.325 99.234">
  <g id="Group_6" data-name="Group 6" transform="translate(-37.285 -164.859)">
    <path id="Path_9" data-name="Path 9" d="M157.129,189.149h4.2v69.774H42.453v-34.41a50.592,50.592,0,0,1,19.639-8.494,31.5,31.5,0,0,1,4.832-.655,5.486,5.486,0,0,1,3.64.743,1.945,1.945,0,0,1,.373.422,1.422,1.422,0,0,1,.213.411c.025.073.118.5.132.5a5.374,5.374,0,0,1,.013.822,6.274,6.274,0,0,1-.226,1.333c-.161.664-.364,1.317-.57,1.968-.751,2.372-1.682,5-.943,7.493,1.017,3.438,4.723,4.9,7.941,5.555,7.168,1.451,14.541-.936,20.7-4.549,7.231-4.241,13.3-10.207,20.749-14.1,2.457-1.284.283-5-2.174-3.719-6.625,3.463-12.17,8.538-18.387,12.627-5.52,3.631-12.445,6.843-19.232,5.688a11.693,11.693,0,0,1-4.559-1.548,2.76,2.76,0,0,1-.844-.943c.017.041-.087-.323-.129-.51.021.046-.025-.478-.022-.6a12.823,12.823,0,0,1,.736-3.256,33.215,33.215,0,0,0,1.018-3.561c.579-2.965.026-5.955-2.621-7.755-2.825-1.92-6.616-1.356-9.774-.866a53.352,53.352,0,0,0-20.507,7.815V189.149h89.058l5.169-5.169H37.285v80.112H166.5V183.98h-4.2Z" fill="#fff"/>
    <path id="Path_10" data-name="Path 10" d="M125.2,208.27l11.617-3.681,31.795-31.795-7.936-7.936L128.88,196.653Z" fill="#fff"/>
  </g>
</svg>
