<svg xmlns="http://www.w3.org/2000/svg" width="47" height="31.666" viewBox="0 0 47 31.666">
  <path id="icon_research" d="M390.973,271.206a6.048,6.048,0,0,0-8.878,8.153l-6.961,9.558a6.029,6.029,0,0,0-2.537-.1l-5.686-8.086a5.059,5.059,0,1,0-9.552-2.107h0a5.024,5.024,0,0,0,.805,2.524l-4.983,5.624a5.958,5.958,0,0,0-7.251,6.1h0a6.008,6.008,0,0,0,5.992,5.752c.083,0,.167,0,.251-.005a5.993,5.993,0,0,0,4.243-9.967l4.694-5.3c.014-.015.022-.033.035-.048a5.026,5.026,0,0,0,1.268.167q.1,0,.211,0a5.092,5.092,0,0,0,1.518-.3l5.138,7.308c-.093.09-.189.177-.277.273a6.273,6.273,0,0,0,4.612,10.523c.087,0,.175,0,.263-.005a6.277,6.277,0,0,0,4.417-10.454l6.823-9.367a6.043,6.043,0,0,0,1.753.261c.084,0,.17,0,.255-.005a6.051,6.051,0,0,0,3.849-10.5ZM352.02,294.953a2.33,2.33,0,1,1,2.233-2.424A2.34,2.34,0,0,1,352.02,294.953ZM362.471,279.8a1.39,1.39,0,1,1,.884-2.412,1.39,1.39,0,0,1-.884,2.412Zm13.061,16.961a2.6,2.6,0,1,1,.686-1.871A2.589,2.589,0,0,1,375.532,296.763Zm13.093-19.494a2.38,2.38,0,1,1-1.849-3.99l.1,0a2.381,2.381,0,0,1,1.748,3.992Z" transform="translate(-345.924 -269.607)" fill="#a70000"/>
</svg>
