<svg xmlns="http://www.w3.org/2000/svg" width="31.371" height="31.822" viewBox="0 0 31.371 31.822">
  <path id="icon_creation" d="M817.553,274.961l-2.525,2.569-6.612-6.5,2.525-2.569a3.043,3.043,0,0,1,4.3-.037l2.271,2.232A3.043,3.043,0,0,1,817.553,274.961Zm-3.41,3.47-15.251,15.515-6.612-6.5,15.251-15.515Zm-6.108-1.859a.98.98,0,1,0-1.4-1.374l-10.959,11.148a.98.98,0,1,0,1.4,1.374Zm2.95,2.9a.98.98,0,0,0-1.4-1.374l-10.958,11.148a.98.98,0,1,0,1.4,1.374Zm-12.83,15.223-5.55,2.34-5.55,2.34,2.244-5.589,2.244-5.589,3.306,3.25Zm-2.315-.442-3.814-3.75-1.434,3.572,1.7,1.673Z" transform="translate(-787.055 -267.552)" fill="#259fb0"/>
</svg>
