<svg xmlns="http://www.w3.org/2000/svg" xmlns:xlink="http://www.w3.org/1999/xlink" width="1194" height="595" viewBox="0 0 1194 595"><defs><clipPath id="a"><rect width="581" height="124" fill="none"/></clipPath><clipPath id="b"><rect width="287" height="62" fill="none"/></clipPath><clipPath id="c"><rect width="623" height="52" fill="none"/></clipPath></defs><g transform="translate(-374 -499)"><rect width="775" height="595" transform="translate(374 499)" fill="#f8f8f8"/><rect width="775" height="287" transform="translate(374 499)" fill="#e9e9e9"/><rect width="360" height="595" transform="translate(1208 499)" fill="#f8f8f8"/><rect width="360" height="517" transform="translate(1208 499)" fill="#e9e9e9"/><rect width="775" height="23" transform="translate(374 499)" fill="#dfdfdf"/><rect width="360" height="23" transform="translate(1208 499)" fill="#dfdfdf"/><rect width="281" height="189" transform="translate(471 560)" fill="#dfdfdf"/><rect width="281" height="189" transform="translate(1248 779)" fill="#dfdfdf"/><g transform="translate(471 822)" clip-path="url(#a)"><g transform="translate(-588 -8171)"><rect width="131" height="96" transform="translate(588 8171)" fill="#dfdfdf"/><text transform="translate(643 8283)" fill="#707070" font-size="11" font-family="Roboto-Regular, Roboto"><tspan x="0" y="0">Title</tspan></text></g><g transform="translate(-438 -8171)"><rect width="131" height="96" transform="translate(588 8171)" fill="#dfdfdf"/><text transform="translate(643 8283)" fill="#707070" font-size="11" font-family="Roboto-Regular, Roboto"><tspan x="0" y="0">Title</tspan></text></g><g transform="translate(-288 -8171)"><rect width="131" height="96" transform="translate(588 8171)" fill="#dfdfdf"/><text transform="translate(643 8283)" fill="#707070" font-size="11" font-family="Roboto-Regular, Roboto"><tspan x="0" y="0">Title</tspan></text></g><g transform="translate(-138 -8171)"><rect width="131" height="96" transform="translate(588 8171)" fill="#dfdfdf"/><text transform="translate(643 8283)" fill="#707070" font-size="11" font-family="Roboto-Regular, Roboto"><tspan x="0" y="0">Title</tspan></text></g></g><g transform="translate(1248 1032)" clip-path="url(#b)"><g transform="translate(-588 -8171)"><rect width="131" height="96" transform="translate(588 8171)" fill="#dfdfdf"/><text transform="translate(643 8283)" fill="#707070" font-size="11" font-family="Roboto-Regular, Roboto"><tspan x="0" y="0">Title</tspan></text></g><g transform="translate(-438 -8171)"><rect width="131" height="96" transform="translate(588 8171)" fill="#dfdfdf"/><text transform="translate(643 8283)" fill="#707070" font-size="11" font-family="Roboto-Regular, Roboto"><tspan x="0" y="0">Title</tspan></text></g></g><text transform="translate(558 660)" fill="#707070" font-size="16" font-family="Roboto-Black, Roboto" font-weight="800"><tspan x="0" y="0">Product Image</tspan></text><text transform="translate(1335 879)" fill="#707070" font-size="16" font-family="Roboto-Black, Roboto" font-weight="800"><tspan x="0" y="0">Product Image</tspan></text><line x2="775" transform="translate(374.5 897.5)" fill="none" stroke="#707070" stroke-width="1"/><text transform="translate(395 890)" fill="#707070" font-size="11" font-family="Roboto-ThinItalic, Roboto" font-weight="200" font-style="italic"><tspan x="0" y="0">Fold</tspan></text><text transform="translate(1094 890)" fill="#707070" font-size="11" font-family="Roboto-ThinItalic, Roboto" font-weight="200" font-style="italic"><tspan x="0" y="0">Fold</tspan></text><text transform="translate(795 609)" fill="#707070" font-size="18" font-family="Roboto-Bold, Roboto" font-weight="700" letter-spacing="0.137em"><tspan x="0" y="0">HEADLINE</tspan></text><text transform="translate(1388 590)" fill="#707070" font-size="18" font-family="Roboto-Bold, Roboto" font-weight="700" letter-spacing="0.137em"><tspan x="-50.871" y="0">HEADLINE</tspan></text><text transform="translate(795 623)" fill="#707070" font-size="11" font-family="Roboto-Regular, Roboto" letter-spacing="0.241em"><tspan x="0" y="10">LOREM IPSUM DOLOR SIT AMET, </tspan><tspan x="0" y="27">CONSETETUR SADIPSCING ELITR, SED</tspan></text><text transform="translate(1250 604)" fill="#707070" font-size="11" font-family="Roboto-Regular, Roboto" letter-spacing="0.241em"><tspan x="23.073" y="10">LOREM IPSUM DOLOR SIT AMET, </tspan><tspan x="1.728" y="27">CONSETETUR SADIPSCING ELITR, SED</tspan></text><g transform="translate(795 668.384)"><path d="M0,0H149.62V32.125H0Z" transform="translate(0 0)" fill="#7b7b7b"/><text transform="translate(74.68 18.637)" fill="#fff" font-size="8" font-family="Roboto-Bold, Roboto" font-weight="700"><tspan x="-32.236" y="0">COLLECTION CTA</tspan></text></g><g transform="translate(1246.619 658.384)"><path d="M0,0H282.38V32.125H0Z" transform="translate(0 0)" fill="#7b7b7b"/><text transform="translate(140.859 18.637)" fill="#fff" font-size="8" font-family="Roboto-Bold, Roboto" font-weight="700"><tspan x="-32.236" y="0">COLLECTION CTA</tspan></text></g><g transform="translate(958.836 668.384)"><g transform="translate(0 0)" fill="none" stroke="#7b7b7b" stroke-width="3"><rect width="86.655" height="32.125" stroke="none"/><rect x="1.5" y="1.5" width="83.655" height="29.125" fill="none"/></g><g transform="translate(17.753 7.067)"><text transform="translate(27 11.57)" fill="#7b7b7b" font-size="8" font-family="OpenSans-Bold, Open Sans" font-weight="700" letter-spacing="0.183em"><tspan x="-26.829" y="0">VIDEO CTA</tspan></text></g></g><g transform="translate(1247.326 699.384)"><g transform="translate(0 0)" fill="none" stroke="#7b7b7b" stroke-width="3"><rect width="281.674" height="32.125" stroke="none"/><rect x="1.5" y="1.5" width="278.674" height="29.125" fill="none"/></g><g transform="translate(113.771 10.637)"><text transform="translate(27 9)" fill="#7b7b7b" font-size="8" font-family="OpenSans-Bold, Open Sans" font-weight="700" letter-spacing="0.183em"><tspan x="-26.829" y="0">VIDEO CTA</tspan></text></g></g><g transform="translate(451 990)" clip-path="url(#c)"><g transform="translate(-610 -8336)"><rect width="108" height="34" transform="translate(610 8336)" fill="#ececec"/><text transform="translate(664 8356)" fill="#cfcfcf" font-size="12" font-family="Roboto-Bold, Roboto" font-weight="700" letter-spacing="0.137em"><tspan x="-15.925" y="0">Logo</tspan></text></g><g transform="translate(-482 -8336)"><rect width="108" height="34" transform="translate(610 8336)" fill="#ececec"/><text transform="translate(664 8356)" fill="#cfcfcf" font-size="12" font-family="Roboto-Bold, Roboto" font-weight="700" letter-spacing="0.137em"><tspan x="-15.925" y="0">Logo</tspan></text></g><g transform="translate(-354 -8336)"><rect width="108" height="34" transform="translate(610 8336)" fill="#ececec"/><text transform="translate(664 8356)" fill="#cfcfcf" font-size="12" font-family="Roboto-Bold, Roboto" font-weight="700" letter-spacing="0.137em"><tspan x="-15.925" y="0">Logo</tspan></text></g><g transform="translate(-226 -8336)"><rect width="108" height="34" transform="translate(610 8336)" fill="#ececec"/><text transform="translate(664 8356)" fill="#cfcfcf" font-size="12" font-family="Roboto-Bold, Roboto" font-weight="700" letter-spacing="0.137em"><tspan x="-15.925" y="0">Logo</tspan></text></g><g transform="translate(-98 -8336)"><rect width="108" height="34" transform="translate(610 8336)" fill="#ececec"/><text transform="translate(664 8356)" fill="#cfcfcf" font-size="12" font-family="Roboto-Bold, Roboto" font-weight="700" letter-spacing="0.137em"><tspan x="-15.925" y="0">Logo</tspan></text></g></g></g></svg>