<?xml version="1.0" encoding="utf-8"?>
<!-- Generator: Adobe Illustrator 16.0.0, SVG Export Plug-In . SVG Version: 6.00 Build 0)  -->
<!DOCTYPE svg PUBLIC "-//W3C//DTD SVG 1.1//EN" "http://www.w3.org/Graphics/SVG/1.1/DTD/svg11.dtd">
<svg version="1.1" id="Layer_1" xmlns="http://www.w3.org/2000/svg" xmlns:xlink="http://www.w3.org/1999/xlink" x="0px" y="0px"
	 width="3846.139px" height="1449.581px" viewBox="0 0 3846.139 1449.581" enable-background="new 0 0 3846.139 1449.581"
	 xml:space="preserve">
<g>
	<g>
		<path fill="#FFFFFF" d="M0,702.422V106.62h319.573c99.443,0,180.186,80.744,180.186,180.186v235.432
			c0,99.442-80.743,180.185-180.186,180.185H0z M155.537,546.885h164.036c13.6,0,24.649-11.049,24.649-24.648V286.806
			c0-13.599-11.049-24.647-24.649-24.647H155.537V546.885z"/>
	</g>
	<g>
		<rect x="600.04" y="107.471" fill="#FFFFFF" width="155.537" height="594.952"/>
	</g>
	<g>
		<path fill="#FFFFFF" d="M1252.778,106.621v155.537h-130.89c-16.998,0-28.047,15.299-22.947,31.448l67.144,214.184
			c33.997,110.49-62.895,194.634-168.286,194.634H850.761V546.886H982.5c17.848,0,28.048-15.299,22.948-31.448l-66.295-214.183
			c-33.997-111.341,62.045-194.634,168.287-194.634H1252.778z"/>
	</g>
	<g>
		<path fill="#FFFFFF" d="M1344.569,107.47h155.538v594.952h-155.538V107.47z M1524.754,323.353h71.395
			c10.199,0,19.548-6.8,22.948-16.999l62.045-198.884h162.336l-72.243,233.731c-8.5,26.349-21.249,46.747-45.897,59.496
			c24.648,13.599,38.247,33.997,45.897,60.345l73.943,241.381h-162.336l-63.745-206.534c-3.4-10.199-12.749-16.999-22.948-16.999
			h-71.395V323.353z"/>
	</g>
	<g>
		<path fill="#FFFFFF" d="M1037.998,819.621v414.768c0,99.441-80.743,180.185-180.185,180.185h-82.444
			c-100.292,0-181.035-80.743-181.035-180.185v-50.146H749.87v50.146c0,13.599,11.05,24.647,25.498,24.647h82.444
			c13.599,0,24.648-11.049,24.648-24.647V819.621H1037.998z"/>
	</g>
	<g>
		<path fill="#FFFFFF" d="M1636.347,1234.389c0,99.441-80.743,180.186-180.186,180.186h-140.238
			c-99.442,0-180.186-80.744-180.186-180.186V999.807c0-99.441,80.744-180.185,180.186-180.185h140.238
			c99.443,0,180.186,80.743,180.186,180.185V1234.389z M1480.81,999.807c0-13.598-11.05-24.647-24.649-24.647h-140.238
			c-13.599,0-24.648,11.05-24.648,24.647v234.582c0,13.599,11.049,24.647,24.648,24.647h140.238
			c13.599,0,24.649-11.049,24.649-24.647V999.807z"/>
	</g>
	<g>
		<path fill="#FFFFFF" d="M1915.97,1414.573c-99.442,0-180.185-80.742-180.185-180.185V998.958
			c0-99.442,80.743-180.187,180.185-180.187h242.231V974.31H1915.97c-13.598,0-24.648,11.048-24.648,24.648v235.431
			c0,13.599,11.05,24.647,24.648,24.647h242.231v155.537H1915.97z"/>
	</g>
	<g>
		<path fill="#FFFFFF" d="M2256.779,819.621h155.537v594.952h-155.537V819.621z M2436.965,1035.504h71.395
			c10.199,0,19.547-6.799,22.948-16.998l62.045-198.885h162.336l-72.243,233.732c-8.5,26.347-21.248,46.746-45.896,59.493
			c24.648,13.601,38.246,33.998,45.896,60.347l73.943,241.38h-162.336l-63.745-206.533c-3.401-10.199-12.749-16.999-22.948-16.999
			h-71.395V1035.504z"/>
	</g>
	<g>
		<path fill="#FFFFFF" d="M3000.465,1414.573c-99.442,0-180.186-80.742-180.186-180.185V998.958
			c0-99.442,80.743-180.187,180.186-180.187h242.23V974.31h-242.23c-13.6,0-24.648,11.048-24.648,24.648v39.945h266.879v155.538
			h-266.879v39.947c0,13.599,11.049,24.647,24.648,24.647h242.23v155.537H3000.465z"/>
	</g>
	<g>
		<path fill="#FFFFFF" d="M3774.746,1073.751c-17.85,64.596-58.646,107.091-107.092,128.34v212.483h-155.537v-214.183
			c-48.447-21.249-89.244-63.745-107.093-126.641l-72.243-254.13h162.337l62.044,219.283c10.2,30.597,52.696,39.947,65.445,0
			l61.195-219.283h162.336L3774.746,1073.751z"/>
	</g>
	<g>
		<path fill="#FFFFFF" d="M2662.017,1449.581c-6.954,0.001-15.429-7.111-16.669-27.235l-84.35-1368.749
			c-0.869-14.097-6.033-21.539-10.687-21.603c-0.02,0-0.039,0-0.059,0c-4.237,0-9.337,6.292-10.581,20.167l-56.782,633.352
			c-1.69,18.855-9.963,25.591-16.534,25.63c-0.02,0-0.039,0-0.059,0c-6.46,0.001-14.637-6.526-16.512-24.951l-12.41-121.958
			c-1.372-13.478-6.377-19.563-10.496-19.563c-0.039,0-0.078,0.001-0.118,0.002c-4.707,0.134-10.057,8.062-10.701,22.491
			l-29.952,670.877c-0.87,19.468-9.034,28.201-16.739,28.221c-0.008,0-0.018,0-0.025,0c-7.645,0.001-15.778-8.628-16.739-27.922
			L2292.389,28.223c-0.723-14.509-5.943-22.161-10.727-22.222c-0.019,0-0.036,0-0.055,0c-4.515,0-9.605,7.155-10.642,20.894
			l-45.525,603.857c-1.464,19.422-9.846,26.382-16.578,26.441c-0.028,0-0.058,0-0.086,0c-6.565,0-14.808-6.651-16.556-25.441
			c-1.28-13.777-6.334-20-10.535-20c-0.038,0-0.076,0-0.115,0.001c-4.774,0.129-10.154,8.167-10.719,22.81l-21.392,554.392
			c-0.757,19.609-8.921,28.482-16.677,28.576c-0.041,0.001-0.082,0.001-0.123,0.001c-6.933,0-15.411-7.097-16.674-27.158
			L2050.645,152.16c-0.891-14.145-6.055-21.535-10.703-21.535c-0.006,0-0.012,0-0.019,0c-4.74,0.021-9.948,7.58-10.73,21.986
			l-50.023,921.931c-1.039,19.13-9.119,27.66-16.706,27.66c-0.037,0-0.074,0-0.11,0c-7.848-0.086-16.055-9.066-16.7-28.937
			l-22.918-706.186c-0.481-14.804-5.88-22.968-10.716-23.134c-4.141-0.151-9.244,5.926-10.626,19.587l-48.759,481.636
			c-1.92,18.972-10.338,25.329-16.925,24.979c-7.906-0.399-16.414-10.224-16.414-30.851v-281.71c0-16.767-6.265-24.63-10.714-24.859
			c-4.142-0.231-9.235,5.8-10.647,19.506l-14.294,138.82c-1.548,15.03-7.995,24.797-16.424,24.885
			c-6.533,0.019-14.29-6.132-16.471-23.734l-11.763-94.924c-1.557-12.57-6.463-18.387-10.364-18.472
			c-3.67-0.051-8.261,4.958-10.188,16.394l-20.812,123.522c-2.697,16.008-10.219,21.53-16.263,21.394
			c-8.153-0.205-14.513-9.665-16.204-24.1l-7.774-66.371c-1.473-12.568-6.358-18.556-10.274-18.8c-3.83-0.231-7.63,4.943-9.661,13.2
			l-25.285,102.848c-2.818,11.461-8.695,18.121-15.739,17.76c-6.088-0.295-13.432-6.385-15.784-22.59l-7.29-50.209
			c-1.776-12.23-6.486-17.595-10.375-17.46c-4.424,0.139-9.472,7.249-10.561,20.569l-20.65,252.635
			c-1.574,19.255-9.92,26.079-16.614,26.079c-0.019,0-0.037,0-0.056,0c-6.804-0.038-15.241-7.061-16.625-26.727l-41.723-592.591
			c-0.978-13.885-6.117-21.149-10.688-21.149c-4.572,0-9.711,7.266-10.688,21.152l-44.771,636.624
			c-1.277,18.158-9.165,26.509-16.414,26.729c-6.54,0.205-14.281-5.82-16.587-23.302l-80.197-608.103
			c-1.673-12.684-6.6-18.278-10.487-18.092c-4.743,0.217-10.094,8.269-10.667,22.762l-30.655,775.554
			c-0.776,19.624-8.953,28.465-16.713,28.521c-0.024,0-0.049,0-0.074,0c-7.586,0-15.677-8.539-16.713-27.664l-41.385-763.517
			c-0.782-14.423-5.993-21.979-10.735-21.989c-0.003,0-0.006,0-0.009,0c-4.698,0-9.887,7.474-10.722,21.771l-34.993,599.23
			c-1.189,20.375-9.758,27.524-16.812,27.422c-7.818-0.095-16.01-9.047-16.688-28.834l-12.723-371.863
			c-0.51-14.916-5.931-23.003-10.772-23.038c-0.011,0-0.022,0-0.033,0c-4.798,0-10.018,7.634-10.734,22.264l-13.396,273.765
			c-0.917,18.742-8.832,27.551-16.268,27.967c-6.249,0.338-13.896-5.175-16.575-21.726l-46.024-284.243
			c-1.899-11.73-6.566-16.854-10.278-16.691c-4.396,0.169-9.424,7.255-10.53,20.469l-20.452,244.264
			c-1.584,18.922-9.833,25.813-16.416,25.965c-6.522,0.16-14.26-5.917-16.536-23.388L834.205,677.2
			c-1.579-12.119-6.381-17.91-10.176-18.162c-3.648-0.242-7.386,4.615-9.468,12.376l-44.748,166.766
			c-2.83,10.547-8.445,16.823-15.039,16.823c-0.041,0-0.08,0-0.12-0.001c-6.815-0.078-12.5-6.753-15.206-17.855l-37.796-155.04
			c-2.002-8.213-5.742-13.42-9.611-13.279c-3.547,0.137-8.202,5.394-10.037,16.614l-45.226,276.511
			c-2.65,16.206-10.172,21.821-16.313,21.646c-8.249-0.216-14.624-9.824-16.239-24.479l-54.27-492.207
			c-1.455-13.189-6.411-19.141-10.453-19.141c-0.041,0-0.081,0-0.122,0.002c-4.761,0.142-9.958,7.811-10.682,22.195l-24.565,488.566
			c-0.957,19.042-9.01,27.729-16.565,27.893c-0.07,0.001-0.14,0.002-0.21,0.002c-6.578,0-14.773-6.628-16.531-25.408
			l-29.581-315.934c-1.208-12.904-6.192-19.812-10.491-19.966c-3.718-0.121-8.31,4.912-10.237,16.479l-35.654,213.995
			c-2.174,13.055-8.477,21.49-16.057,21.49H217.438v-6h151.371c3.675,0,8.337-5.659,10.139-16.477l35.654-213.995
			c2.696-16.179,10.212-21.705,16.372-21.488c8.455,0.303,14.833,10.274,16.25,25.403l29.58,315.935
			c1.297,13.849,6.442,20.091,10.639,19.966c4.769-0.103,9.977-7.76,10.702-22.194l24.565-488.567
			c0.953-18.956,8.972-27.667,16.495-27.891c6.432-0.194,14.691,6.104,16.717,24.479l54.27,492.206
			c1.433,13,6.413,19.034,10.432,19.139c0.035,0.001,0.07,0.001,0.105,0.001c3.708,0,8.249-5.112,10.131-16.617l45.225-276.51
			c2.136-13.058,8.162-21.35,15.727-21.642c7.018-0.243,12.88,6.404,15.671,17.854l37.796,155.04
			c2.376,9.747,6.573,13.244,9.446,13.277c0.015,0,0.031,0,0.046,0c3.603,0,7.229-4.849,9.249-12.378l44.748-166.767
			c2.946-10.98,8.796-17.257,15.661-16.808c7.771,0.516,13.945,9.69,15.727,23.374l25.802,198.025
			c1.63,12.509,6.491,18.165,10.357,18.165c0.03,0,0.061,0,0.091-0.001c4.412-0.101,9.462-7.164,10.576-20.466l20.452-244.265
			c1.292-15.441,7.682-25.632,16.278-25.963c6.172-0.256,13.779,5.342,16.432,21.727l46.024,284.243
			c1.914,11.824,6.549,16.914,10.317,16.693c4.628-0.259,9.919-8.151,10.61-22.269l13.396-273.765
			c0.946-19.337,9.071-27.972,16.729-27.972c0.025,0,0.05,0,0.075,0c7.836,0.058,16.046,8.995,16.724,28.833l12.723,371.862
			c0.51,14.886,5.926,22.98,10.764,23.039c4.755,0.06,9.91-7.404,10.749-21.771l34.993-599.23
			c1.106-18.946,9.188-27.421,16.713-27.421c0.007,0,0.014,0,0.021,0c7.574,0.016,15.679,8.576,16.714,27.664l41.385,763.518
			c0.783,14.447,5.979,21.988,10.72,21.988c0.011,0,0.021,0,0.032,0c4.902-0.036,10.173-7.864,10.762-22.758l30.655-775.555
			c0.76-19.216,8.778-28.169,16.387-28.518c6.537-0.307,14.384,5.663,16.71,23.301l80.198,608.102
			c1.661,12.598,6.573,18.188,10.456,18.09c4.543-0.139,9.647-7.449,10.611-21.153l44.771-636.624
			c1.388-19.73,9.849-26.731,16.672-26.731c6.823,0,15.284,6.999,16.673,26.727l41.723,592.591
			c0.975,13.85,6.108,21.123,10.674,21.148c0.008,0,0.016,0,0.024,0c4.452,0,9.527-7.056,10.632-20.567l20.65-252.636
			c1.273-15.57,7.692-25.806,16.353-26.077c6.396-0.214,14.037,5.633,16.5,22.595l7.29,50.21
			c1.704,11.74,6.449,17.279,10.137,17.458c3.812,0.227,7.604-4.994,9.622-13.199l25.286-102.848
			c2.842-11.56,8.765-18.202,15.86-17.756c7.978,0.497,14.203,9.953,15.859,24.09l7.774,66.371
			c1.497,12.775,6.438,18.701,10.396,18.8c0.033,0,0.066,0.001,0.1,0.001c3.667,0,8.184-5.045,10.096-16.394l20.812-123.522
			c2.691-15.978,10.139-21.551,16.234-21.396c8.07,0.176,14.424,9.492,16.188,23.733l11.762,94.924
			c1.574,12.704,6.493,18.472,10.414,18.472c0.014,0,0.027,0,0.041,0c4.103-0.042,9.144-6.163,10.517-19.5l14.294-138.821
			c1.947-18.908,10.356-25.206,16.923-24.883c7.902,0.406,16.407,10.233,16.407,30.851v281.71c0,16.772,6.267,24.634,10.716,24.858
			c4.112,0.189,9.26-5.831,10.653-19.593l48.759-481.635c1.903-18.798,10.276-25.219,16.801-24.979
			c7.757,0.265,15.87,9.315,16.507,28.935l22.919,706.186c0.485,14.954,5.91,23.079,10.769,23.132c0.016,0,0.032,0.001,0.049,0.001
			c4.738,0,9.926-7.533,10.711-21.987l50.023-921.93c1.035-19.063,9.131-27.628,16.695-27.661c0.015,0,0.03,0,0.044,0
			c6.923,0,15.43,7.106,16.692,27.158l65.342,1038.213c0.891,14.157,6.038,21.535,10.683,21.535c0.018,0,0.035,0,0.053,0
			c4.909-0.061,10.18-7.913,10.754-22.808l21.392-554.393c0.751-19.451,8.854-28.368,16.553-28.576
			c0.088-0.002,0.177-0.003,0.266-0.003c6.592,0,14.772,6.631,16.521,25.444c1.279,13.752,6.372,19.997,10.577,19.997
			c0.013,0,0.024,0,0.037,0c4.512-0.04,9.618-7.229,10.648-20.893l45.525-603.857C2266.456,6.909,2274.83,0,2281.611,0
			c0.042,0,0.085,0,0.127,0.001c7.597,0.097,15.688,8.769,16.643,27.923l60.215,1210.117c0.727,14.592,5.954,22.221,10.746,22.221
			c0.004,0,0.008,0,0.012,0c4.848-0.012,10.101-7.741,10.76-22.488l29.952-670.877c0.857-19.195,8.917-28.005,16.525-28.221
			c6.51-0.184,14.849,6.237,16.753,24.951l12.41,121.958c1.368,13.446,6.418,19.559,10.541,19.559c0.008,0,0.017,0,0.024,0
			c4.368-0.026,9.41-6.962,10.594-20.167l56.782-633.352c1.698-18.935,9.951-25.631,16.564-25.631c0.045,0,0.091,0,0.136,0.001
			c7.43,0.104,15.44,8.564,16.591,27.233l84.35,1368.749c0.876,14.211,6.021,21.604,10.678,21.604c0.023,0,0.047,0,0.071-0.001
			c4.893-0.079,10.328-8.277,10.764-23.314l34.285-1182.595c0.577-19.917,8.772-28.986,16.638-29.139
			c0.065-0.001,0.131-0.002,0.196-0.002c6.881,0,15.292,7.014,16.641,26.875l42.876,631.589
			c0.944,13.917,6.086,21.239,10.677,21.278c0.012,0,0.024,0,0.036,0c4.416,0,9.47-6.989,10.612-20.39l35.629-417.858
			c1.618-18.981,9.904-25.804,16.509-25.879c0.036,0,0.072,0,0.107,0c6.397,0,14.507,6.428,16.472,24.599l66.45,614.593
			c1.432,13.239,6.432,19.244,10.495,19.244c0.019,0,0.037,0,0.057-0.001c4.458-0.062,9.536-7.174,10.616-20.647l64.709-807.094
			c1.549-19.323,9.902-26.168,16.618-26.168c0.024,0,0.048,0,0.072,0c6.86,0.05,15.333,7.155,16.632,27.015l43.057,658.171
			c0.917,14.038,6.076,21.396,10.698,21.408c0.004,0,0.008,0,0.012,0c4.565,0,9.696-7.251,10.679-21.125l4.884-68.897
			c1.372-19.364,9.691-26.485,16.398-26.699c6.502-0.192,14.227,5.76,16.575,23.119l18.813,139.059
			c1.669,12.335,6.517,17.927,10.339,17.927c0.02,0,0.038,0,0.058-0.001c4.078-0.061,9.101-6.152,10.493-19.387l19.259-183.004
			c1.533-14.58,7.813-24.295,15.999-24.749c7.395-0.388,13.381,6.676,16.069,18.948l24.09,109.954
			c2.071,9.451,6.213,13.958,9.4,14.232c2.929,0.234,5.987-2.85,8.205-8.29l44.884-110.084c3.233-7.929,8.335-12.314,13.943-12.023
			c6.221,0.317,11.427,6.084,14.283,15.823l32.58,111.108c2.054,7.007,5.589,11.523,9.012,11.523c0.011,0,0.022,0,0.033,0
			c3.55-0.031,7.147-4.806,9.168-12.164l39.696-144.657l5.786,1.588l-39.696,144.657c-2.834,10.323-8.404,16.52-14.902,16.576
			c-0.029,0-0.059,0-0.088,0c-6.342,0.001-11.856-5.91-14.767-15.836l-32.58-111.107c-2.002-6.826-5.469-11.349-8.83-11.52
			c-2.895-0.13-5.905,2.954-8.082,8.297l-44.884,110.084c-3.313,8.123-8.516,12.502-14.275,12.002
			c-6.766-0.581-12.278-7.656-14.748-18.926l-24.09-109.954c-2.364-10.787-6.825-14.424-9.875-14.241
			c-4.162,0.23-9.059,6.964-10.365,19.386l-19.259,183.004c-1.569,14.916-7.996,24.634-16.371,24.758
			c-0.05,0.001-0.1,0.002-0.149,0.002c-6.388,0-13.974-6.063-16.281-23.122l-18.813-139.059
			c-1.672-12.356-6.491-17.929-10.314-17.929c-0.042,0-0.083,0.001-0.124,0.002c-4.536,0.145-9.636,7.447-10.605,21.126
			l-4.883,68.897c-1.396,19.711-9.844,26.7-16.665,26.701c-0.009,0-0.018,0-0.026,0c-6.876-0.02-15.368-7.105-16.67-27.017
			l-43.057-658.171c-0.917-14.009-6.07-21.373-10.688-21.407c-0.01,0-0.021,0-0.031,0c-4.468,0-9.547,7.08-10.635,20.648
			l-64.709,807.094c-1.537,19.167-9.856,26.075-16.514,26.168c-0.044,0-0.088,0-0.132,0.001c-6.401,0-14.503-6.426-16.468-24.6
			l-66.45-614.593c-1.432-13.236-6.436-19.244-10.499-19.244c-0.016,0-0.031,0-0.047,0c-4.408,0.05-9.464,7.069-10.599,20.389
			l-35.629,417.858c-1.637,19.194-9.971,25.942-16.679,25.88c-6.826-0.059-15.271-7.133-16.611-26.872l-42.876-631.589
			c-0.957-14.089-6.138-21.392-10.733-21.28c-4.89,0.095-10.322,8.298-10.757,23.314l-34.285,1182.595
			c-0.579,19.952-8.786,29.012-16.664,29.141C2662.128,1449.581,2662.072,1449.581,2662.017,1449.581z"/>
	</g>
</g>
</svg>
