<?xml version="1.0" encoding="utf-8"?>
<!-- Generator: Adobe Illustrator 16.0.3, SVG Export Plug-In . SVG Version: 6.00 Build 0)  -->
<!DOCTYPE svg PUBLIC "-//W3C//DTD SVG 1.1//EN" "http://www.w3.org/Graphics/SVG/1.1/DTD/svg11.dtd">
<svg version="1.1" id="Layer_1" xmlns="http://www.w3.org/2000/svg" xmlns:xlink="http://www.w3.org/1999/xlink" x="0px" y="0px"
	 width="795.006px" height="488.097px" viewBox="0 0 795.006 488.097" enable-background="new 0 0 795.006 488.097"
	 xml:space="preserve">
<g>
	<path fill="#FFFFFF" d="M201.264,22.969c28.744,0,51.525,21.864,51.525,49.996s-22.781,49.996-51.525,49.996
		s-51.525-21.864-51.525-49.996S172.52,22.969,201.264,22.969z M201.264,106.143c17.276,0,32.871-14.524,32.871-33.178
		s-15.595-33.178-32.871-33.178c-17.277,0-32.873,14.524-32.873,33.178S183.987,106.143,201.264,106.143z"/>
</g>
<g>
	<path fill="#FFFFFF" d="M298.79,24.956h17.736v53.055c0,17.582,11.16,28.132,24.922,28.132c13.912,0,24.922-10.55,24.922-28.132
		V24.956h17.734v56.877c0,22.169-16.971,41.128-42.656,41.128s-42.658-18.959-42.658-41.128V24.956z"/>
</g>
<g>
	<path fill="#FFFFFF" d="M439.447,41.774h-28.133V24.956h74v16.818h-28.133v79.199h-17.734V41.774z"/>
</g>
<g>
	<path fill="#FFFFFF" d="M201.264,193.299c28.744,0,51.525,21.864,51.525,49.996s-22.781,49.996-51.525,49.996
		s-51.525-21.864-51.525-49.996S172.52,193.299,201.264,193.299z M201.264,276.473c17.276,0,32.871-14.524,32.871-33.178
		s-15.595-33.178-32.871-33.178c-17.277,0-32.873,14.524-32.873,33.178S183.987,276.473,201.264,276.473z"/>
</g>
<g>
	<path fill="#FFFFFF" d="M301.389,250.481h-11.467v-16.818h11.467v-38.377h73.695v16.818h-55.959v21.559h38.986v16.818h-38.986
		v40.822h-17.736V250.481z"/>
</g>
<g>
	<path fill="#FFFFFF" d="M110.417,443.897c-10.702,13.455-25.686,19.725-40.975,19.725c-28.744,0-51.525-21.864-51.525-49.996
		c0-28.133,22.781-49.996,51.525-49.996c15.289,0,30.272,6.268,40.975,19.723L95.739,394.36
		c-6.115-8.867-15.441-13.912-26.297-13.912c-17.277,0-32.873,14.523-32.873,33.178c0,18.652,15.596,33.178,32.873,33.178
		c10.855,0,20.487-5.046,26.604-13.303L110.417,443.897z"/>
</g>
<g>
	<path fill="#FFFFFF" d="M200.717,363.63c28.744,0,51.525,21.863,51.525,49.996c0,28.132-22.781,49.996-51.525,49.996
		s-51.525-21.864-51.525-49.996C149.192,385.493,171.973,363.63,200.717,363.63z M200.717,446.804
		c17.277,0,32.872-14.525,32.872-33.178c0-18.654-15.595-33.178-32.872-33.178s-32.872,14.523-32.872,33.178
		C167.845,432.278,183.44,446.804,200.717,446.804z"/>
</g>
<g>
	<path fill="#FFFFFF" d="M315.979,402.771v58.863h-17.735V363.63l61.922,60.852v-58.865h17.735v98.006L315.979,402.771z"/>
</g>
<g>
	<path fill="#FFFFFF" d="M433.243,382.435H405.11v-16.818h74v16.818h-28.132v79.199h-17.735V382.435z"/>
</g>
<g>
	<path fill="#FFFFFF" d="M508.92,420.812h-11.468v-16.818h11.468v-38.377h73.694v16.818h-55.959v21.559h38.987v16.818h-38.987
		v24.004h55.959v16.818H508.92V420.812z"/>
</g>
<g>
	<path fill="#FFFFFF" d="M634.287,413.626l-29.508-48.01h21.099l18.5,32.566l19.724-32.566h19.876l-29.508,48.01l29.508,48.008
		h-21.1l-18.5-32.566l-19.723,32.566h-19.876L634.287,413.626z"/>
</g>
<g>
	<path fill="#FFFFFF" d="M731.065,382.435h-28.133v-16.818h74v16.818H748.8v79.199h-17.735V382.435z"/>
</g>
<g>
	<path fill="#FFFFFF" d="M276.006,137.097h-150v-126h150V137.097z M132.006,131.097h138v-114h-138V131.097z"/>
</g>
<g>
	<path fill="#FFFFFF" d="M276.006,306.097h-150v-126h150V306.097z M132.006,300.097h138v-114h-138V300.097z"/>
</g>
<g>
	<path fill="#FFFFFF" d="M276.006,477.097h-150v-126h150V477.097z M132.006,471.097h138v-114h-138V471.097z"/>
</g>
</svg>
