<?xml version="1.0" encoding="utf-8"?>
<!-- Generator: Adobe Illustrator 16.0.0, SVG Export Plug-In . SVG Version: 6.00 Build 0)  -->
<!DOCTYPE svg PUBLIC "-//W3C//DTD SVG 1.1//EN" "http://www.w3.org/Graphics/SVG/1.1/DTD/svg11.dtd">
<svg version="1.1" id="Layer_1" xmlns="http://www.w3.org/2000/svg" xmlns:xlink="http://www.w3.org/1999/xlink" x="0px" y="0px"
	 width="200px" height="200px" viewBox="0 0 200 200" enable-background="new 0 0 200 200" xml:space="preserve">
<g>
	<path fill="#2D1D11" d="M159.91,21.449L159.91,21.449l0.095,0.09l-20.533,21.785l-0.095-0.089l-16.675-15.718
		c-1.041-0.029-2.074-0.098-3.092-0.209l18.027,16.989l0.096,0.09l-20.532,21.787L83.966,34.851l-22.23,23.587l68.47,64.53
		l64.644-68.59L159.91,21.449z"/>
	
		<rect x="131.067" y="50.011" transform="matrix(0.6859 -0.7277 0.7277 0.6859 -7.0894 129.1394)" fill="#633F21" width="29.937" height="45.54"/>
	<polygon fill="#442A18" points="167.018,76.54 151.029,93.504 125.147,69.113 119.198,68.057 152.436,99.381 172.967,77.596 	"/>
	<polygon fill="#995D2F" points="125.148,69.113 141.137,52.149 167.018,76.54 172.967,77.596 139.73,46.271 119.199,68.059 	"/>
	
		<rect x="153.339" y="27.162" transform="matrix(0.6859 -0.7277 0.7277 0.6859 16.5358 138.1695)" fill="#633F21" width="29.937" height="45.539"/>
	<polygon fill="#442A18" points="189.288,53.69 173.302,70.654 147.42,46.263 141.471,45.208 174.708,76.531 195.238,54.745 	"/>
	<polygon fill="#995D2F" points="147.421,46.263 163.409,29.299 189.29,53.69 195.24,54.745 162.003,23.423 141.471,45.208 	"/>
	
		<rect x="73.603" y="40.392" transform="matrix(0.6859 -0.7277 0.7277 0.6859 -18.1409 84.2964)" fill="#633F21" width="29.937" height="45.539"/>
	<polygon fill="#442A18" points="109.554,66.92 93.564,83.884 67.685,59.492 61.735,58.438 94.972,89.761 115.504,67.975 	"/>
	<polygon fill="#995D2F" points="67.686,59.492 83.674,42.528 109.554,66.92 115.504,67.975 82.267,36.651 61.735,58.438 	"/>
	
		<rect x="108.837" y="73.598" transform="matrix(0.6858 -0.7278 0.7278 0.6858 -31.2364 120.3754)" fill="#633F21" width="29.937" height="45.539"/>
	<polygon fill="#442A18" points="144.788,100.126 128.8,117.091 102.919,92.699 96.969,91.644 130.205,122.968 150.738,101.183 	"/>
	<polygon fill="#995D2F" points="102.919,92.699 118.907,75.735 144.788,100.126 150.738,101.183 117.501,69.858 96.971,91.644 	"/>
	
		<rect x="23.191" y="73.163" transform="matrix(0.7277 0.6859 -0.6859 0.7277 100.0614 -16.041)" fill="#2856A6" width="94.088" height="89.694"/>
	<polygon fill="#600E14" points="131.45,114.278 73.128,176.16 8.335,115.097 5.24,118.381 73.711,182.912 135.229,117.639 	"/>
	<polygon fill="#600E14" points="131.45,114.278 73.128,176.16 8.335,115.097 5.24,118.381 73.711,182.912 135.229,117.639 	"/>
	<polygon fill="#3799C8" points="78.229,178.115 100.331,152.429 100.331,95.45 78.229,63.919 	"/>
	<polygon fill="#283070" points="131.45,114.278 73.128,176.16 8.335,115.097 5.24,118.381 73.711,182.912 135.229,117.639 	"/>
	<path fill="#121843" d="M96.461,84.817l-31.152,4.609l-7.418-4.628L47.783,94.47c0,0-5.259,0.865-11.136,5.588l28.802-48.14
		L96.461,84.817z"/>
	<polygon fill="#2677BD" points="70.336,56.679 12.014,118.563 5.24,118.381 66.759,53.108 	"/>
	<path fill="#121843" d="M77.733,67.879l3.477,18.607l4.358,5.173l-3.914,4.979c0,0,0.534,3.13-1.185,6.139l23.837-11.512
		L77.733,67.879z"/>
	<path fill="#121843" d="M133.458,119.516L93.402,80.435l6.609,21.745l11.819,18.321l-5.416,9.966c0,0,0.953,9.06,0.854,16.837
		L133.458,119.516z"/>
	<path fill="#EAEAEA" d="M78.338,64.322l3.477,18.608l4.359,5.174l-3.913,4.977c0,0,0.534,3.13-1.187,6.139l23.838-11.51
		L78.338,64.322z"/>
	<polygon fill="#A5A4A4" points="92.158,90.215 86.174,88.104 82.261,93.081 	"/>
	<polygon fill="#878787" points="81.814,82.931 92.158,90.215 86.174,88.104 	"/>
	<path fill="#EAEAEA" d="M93.512,76.3l7.323,21.877l11.952,18.457l-5.401,9.993c0,0,2.367,21.671-0.45,26.837l29.163-36.186
		L93.512,76.3z"/>
	<path fill="#EAEAEA" d="M97.619,80.778l-31.153,4.61l-7.418-4.629l-10.109,9.673c0,0-5.257,0.864-11.133,5.586L66.607,47.88
		L97.619,80.778z"/>
	<polygon fill="#A5A4A4" points="112.768,116.118 128.814,124.642 107.351,126.083 	"/>
	<polygon fill="#FFFFFF" points="100.948,97.797 128.814,124.642 112.768,116.118 	"/>
	<polygon fill="#A5A4A4" points="57.564,71.54 59.048,80.762 48.938,90.433 	"/>
	<polygon fill="#878787" points="66.466,85.389 57.564,71.54 59.048,80.762 	"/>
	<path fill="#633F21" d="M89.914,35.906l25.882,24.393l15.987-16.966L113.51,26.111c-3.607-1.023-6.995-2.567-10.075-4.55
		L89.914,35.906z"/>
	<polygon fill="#633F21" points="137.638,44.298 137.638,44.298 119.61,27.309 	"/>
	<path fill="#442A18" d="M83.966,34.851"/>
	<polygon fill="#442A18" points="137.733,44.388 137.579,44.362 117.104,66.085 83.966,34.851 117.201,66.175 	"/>
	<path fill="#442A18" d="M83.966,34.851"/>
	<polygon fill="#442A18" points="115.796,60.299 89.914,35.906 83.965,34.851 117.104,66.085 137.579,44.362 131.783,43.333 	"/>
	<polygon fill="#995D2F" points="137.733,44.388 137.638,44.298 137.579,44.362 	"/>
	<polygon fill="#995D2F" points="99.351,18.525 99.351,18.525 83.966,34.851 	"/>
	<path fill="#995D2F" d="M113.51,26.111l18.273,17.222l5.796,1.028l0.059-0.063L119.61,27.309
		C117.521,27.076,115.483,26.67,113.51,26.111"/>
	<path fill="#995D2F" d="M103.435,21.562c-1.432-0.921-2.796-1.936-4.084-3.036L83.965,34.851l5.949,1.056L103.435,21.562z"/>
	<polygon fill="#633F21" points="159.91,21.449 159.91,21.449 152.415,14.384 	"/>
	<path fill="#633F21" d="M138.066,37.447l15.988-16.963l-3.904-3.683c-5.997,5.863-13.941,9.74-22.773,10.57L138.066,37.447z"/>
	<path fill="#633F21" d="M122.701,27.519l16.676,15.717L122.701,27.519z"/>
	<path fill="#633F21" d="M152.415,14.384l7.494,7.064L152.415,14.384z"/>
	<polygon fill="#442A18" points="139.377,43.235 139.472,43.324 160.005,21.539 159.85,21.512 	"/>
	<path fill="#442A18" d="M154.055,20.483l-15.988,16.964l-10.689-10.075c-1.175,0.112-2.367,0.175-3.571,0.175
		c-0.369,0-0.736-0.019-1.104-0.029l16.675,15.718l20.474-21.724L154.055,20.483z"/>
	<polygon fill="#995D2F" points="160.005,21.539 159.91,21.449 159.85,21.512 	"/>
	<path fill="#995D2F" d="M150.15,16.802l3.904,3.682l5.795,1.028l0.061-0.063l-7.495-7.064
		C151.694,15.223,150.939,16.031,150.15,16.802"/>
	<path fill="#995D2F" d="M152.71,14.711c0,0-15.988,11.071-26.918,11.071c-9.841,0-17.716-3.312-24.354-9.566l-3.952,4.646
		c7.592,7.041,17.135,10.388,28.307,10.388c12.476,0,23.694-5.369,30.75-13.008L152.71,14.711z"/>
</g>
</svg>
