<?xml version="1.0" encoding="utf-8"?>
<!-- Generator: Adobe Illustrator 16.0.0, SVG Export Plug-In . SVG Version: 6.00 Build 0)  -->
<!DOCTYPE svg PUBLIC "-//W3C//DTD SVG 1.1//EN" "http://www.w3.org/Graphics/SVG/1.1/DTD/svg11.dtd">
<svg version="1.1" id="Layer_1" xmlns="http://www.w3.org/2000/svg" xmlns:xlink="http://www.w3.org/1999/xlink" x="0px" y="0px"
	 width="200px" height="200px" viewBox="0 0 200 200" enable-background="new 0 0 200 200" xml:space="preserve">
<g>
	<path fill="#402312" d="M8.996,127.216C-6.033,76.964,22.521,24.04,72.774,9.007C123.025-6.022,175.949,22.53,190.982,72.783
		c15.029,50.255-13.524,103.177-63.775,118.208C76.953,206.024,24.029,177.469,8.996,127.216"/>
	<path fill="#F27D21" d="M14.032,125.709C-0.172,78.238,26.809,28.242,74.28,14.042c47.474-14.199,97.467,12.774,111.669,60.247
		c14.198,47.475-12.776,97.468-60.248,111.667C78.225,200.156,28.234,173.183,14.032,125.709"/>
	<path fill="#F7B436" d="M102.102,57.302c0-9.353,7.582-16.934,16.937-16.934c9.349,0,16.931,7.581,16.931,16.934
		c0,9.351-7.582,16.932-16.931,16.932C109.684,74.233,102.102,66.652,102.102,57.302"/>
	<path fill="#EF4F25" d="M132.298,154.111c-47.475,14.201-97.471-12.772-111.67-60.245c-0.903-3.018-1.635-6.047-2.212-9.077
		c-2.369,12.588-1.853,25.902,2.064,38.994c13.112,43.841,59.449,68.842,103.292,55.729c29.622-8.861,50.638-32.888,57.111-61.063
		C169.695,135,152.934,147.937,132.298,154.111"/>
	<path fill="#FAAB18" d="M68.812,35.612c47.474-14.199,97.47,12.772,111.67,60.245c1.151,3.857,2.027,7.726,2.647,11.595
		c1.285-10.891,0.418-22.208-2.918-33.366C167.099,30.245,120.762,5.244,76.919,18.357c-24.752,7.404-43.495,25.396-52.765,47.549
		C35.184,51.937,50.465,41.1,68.812,35.612"/>
	<path fill="#402312" d="M85.023,166.471c-6.15-17.929-9.536-41.844-9.536-67.331c0-45.078,10.504-78.943,22.012-89.678
		c-3.336,0.097-6.688,0.371-10.046,0.842c-3.422,4.931-6.531,11.361-9.213,19.18c-6.399,18.657-9.927,43.396-9.927,69.656
		c0,26.258,3.527,50.997,9.927,69.657c3.044,8.871,6.636,15.958,10.611,21.089c3.579,0.444,7.197,0.676,10.845,0.688
		C94.402,187.039,89.174,178.572,85.023,166.471"/>
	<path fill="#402312" d="M33.027,91.404c17.929-6.093,41.846-9.448,67.335-9.448c45.687,0,79.86,10.689,90.106,22.271
		c0.15-3.166,0.135-6.356-0.059-9.559c-5.068-3.73-11.914-7.105-20.387-9.984c-18.66-6.341-43.4-9.833-69.661-9.833
		s-51.004,3.492-69.661,9.833c-8.918,3.03-16.027,6.609-21.164,10.573c-0.172,3.25-0.172,6.524,0.021,9.815
		C13.408,100.127,21.593,95.289,33.027,91.404"/>
	<path fill="#402312" d="M107.029,83.907c-3.072,20.466,8.491,41.697,32.559,59.783c8.172,6.141,17.475,11.679,27.643,16.52
		c1.641-1.835,3.201-3.736,4.683-5.692c-10.362-4.811-19.804-10.359-28.03-16.542c-21.871-16.432-32.451-35.259-29.788-53.007
		c3.048-20.312,23.274-36.504,53.349-44.956c-1.782-1.996-3.641-3.908-5.579-5.732c-6.78,2.092-13.118,4.566-18.863,7.43
		C122.04,52.158,109.604,66.749,107.029,83.907"/>
	<path fill="#402312" d="M30.532,140.414c15.727-18.868,21.573-40.193,16.461-60.048c-3.217-12.483-10.646-23.32-21.14-31.829
		c-1.367,1.968-2.648,3.989-3.855,6.06c8.98,7.472,15.312,16.834,18.07,27.553c4.525,17.568-0.811,36.632-15.025,53.689
		c-1.632,1.958-3.367,3.863-5.184,5.711c1.144,2.206,2.366,4.353,3.675,6.433C26.011,145.554,28.352,143.03,30.532,140.414"/>
	<path fill="#613A17" d="M110.602,71.981c2.056,1.186,4.385,1.951,6.867,2.179c3.692-7.458,9.929-14.14,18.239-19.817
		c-0.437-2.452-1.392-4.724-2.759-6.688C122.414,54.54,114.872,62.754,110.602,71.981"/>
</g>
</svg>
