<?xml version="1.0" encoding="utf-8"?>
<!-- Generator: Adobe Illustrator 16.0.0, SVG Export Plug-In . SVG Version: 6.00 Build 0)  -->
<!DOCTYPE svg PUBLIC "-//W3C//DTD SVG 1.1//EN" "http://www.w3.org/Graphics/SVG/1.1/DTD/svg11.dtd">
<svg version="1.1" id="Layer_1" xmlns="http://www.w3.org/2000/svg" xmlns:xlink="http://www.w3.org/1999/xlink" x="0px" y="0px"
	 width="200px" height="200px" viewBox="0 0 200 200" enable-background="new 0 0 200 200" xml:space="preserve">
<g>
	<g>
		<path fill="#2B388F" d="M20.256,157.386c56.902,7.895,49.05,16.758,67.85,20.648c19.873,4.113,27.227-3.709,41.129-14.453
			c9.356-7.229,8.505-26.783,5.103-30.611c-3.4-3.824-8.5-9.596-8.078-19.979c0.701-17.125,44.214-30.185,44.214-30.185
			C170.049,59.424,131.125,2.052,68.867,22.86C-34.582,57.439,20.256,157.386,20.256,157.386"/>
		<path fill="#26A9E0" d="M97.982,173.927c-2.665,0-5.548-0.328-8.82-1.008c-5.662-1.17-8.381-2.762-12.144-4.971
			c-9.489-5.557-20.113-10.563-53.329-15.355c-4.578-9.477-20.656-46.783-7.863-79.38c8.13-20.708,26.533-35.983,54.698-45.396
			c8.329-2.785,16.597-4.198,24.569-4.198c24.227,0,41.278,12.575,51.311,23.121c5.735,6.028,10.584,12.915,14.032,19.915
			c2.183,4.443,4.484,10.261,5.176,13.953c-4.29,1.478-12.121,2.651-19.291,6.186c-16.631,8.196-24.9,16.694-25.282,25.983
			c-0.507,12.424,5.596,19.389,9.309,23.57c0.616,1.07,1.534,5.357,0.954,10.865c-0.593,5.65-2.509,10.109-5.26,12.236
			c-1.311,1.012-2.562,1.998-3.774,2.953C113.458,169.343,107.636,173.927,97.982,173.927z"/>
		<path fill="#262261" d="M134.34,132.97c-1.95-2.189-4.452-5.023-6.156-8.99c-10.407-8.326-26.859-19.67-40.631-20.998
			c-22.047-2.124-53.628,17.859-68.505-1.699c-9.646-12.679-3.329-34.292,2.306-47.927c-34.49,43.168-1.096,104.03-1.096,104.03
			c56.901,7.896,49.047,16.758,67.847,20.65c19.875,4.115,27.227-3.711,41.132-14.455C138.589,156.353,137.742,136.8,134.34,132.97"
			/>
		<path fill="#1B75BB" d="M130.349,136.345c-3.068-3.453-7.768-8.814-9.019-17.582c-9.987-7.223-22.741-14.717-33.777-15.781
			c-22.047-2.124-53.625,17.859-68.505-1.699c-5.032-6.612-5.717-15.654-4.425-24.725c-10.507,31.758,4.644,66.881,9.066,76.038
			c33.216,4.791,43.839,9.795,53.329,15.357c3.763,2.203,6.482,3.799,12.144,4.967c3.272,0.682,6.155,1.006,8.82,1.006
			c9.653,0,15.476-4.586,24.287-11.521c1.212-0.955,2.463-1.941,3.774-2.955c2.751-2.125,4.667-6.584,5.26-12.236
			C131.883,141.704,130.965,137.413,130.349,136.345"/>
		<path fill="#CDCCCC" d="M9.774,128.974l-1.247,1.324l5.42,20.086c0,0-1.489,4.783,2.975,6.27
			c4.464,1.492,26.359,6.273,26.359,6.273s3.101,1.025,2.083-2.037c-1.023-3.066,1.644-2.107,0.206-5.51s-2.288-12.01-16.635-18.066
			C14.584,131.251,9.774,128.974,9.774,128.974"/>
		<path fill="#76D0F1" d="M59.876,40.461c7.925-2.648,15.768-3.992,23.314-3.992c22.825,0,38.942,11.905,48.442,21.89
			c7.397,7.779,12.571,16.321,15.356,23.429c4.841-2.265,9.503-4.119,13.188-5.471c-2.256-7.692-7.9-17.954-16.64-27.14
			c-9.502-9.988-25.617-21.89-48.44-21.89c-7.548,0-15.393,1.341-23.318,3.991c-15.466,5.169-27.839,12.139-37.033,20.826
			C41.926,47.548,50.305,43.66,59.876,40.461"/>
		<path fill="#CDCCCC" d="M181.575,174.304c-8.11-0.006-23.85-3.453-26.725-5.158c-3.107-1.84-4.099-5.633-4.411-7.729
			c-0.286-1.896-2.025-13.982-2.381-16.461c-2.927-0.225-19.361-1.477-24.828-1.668c-4.644-0.16-8.484-1.078-11.416-2.727
			c-0.447-0.252-1.288-0.73-2.315-1.314c-2.845-1.621-7.142-4.066-8.617-4.842c-0.324-0.172-0.712-0.32-1.124-0.479
			c-1.169-0.447-2.493-0.953-2.945-2.252c-0.383-1.098-0.027-2.545,1.087-4.424c1.178-1.998,2.813-4.492,4.708-7.389
			c3.068-4.689,6.891-10.527,10.699-17.158c6.105-10.633,8.256-11.665,14.147-13.331c5.137-1.455,31.69-8.556,36.067-9.725
			c-1.135-2.829-4.482-11.255-4.482-12.377l-0.002-0.246c-0.027-2.251,0.121-5.433,1.717-7.052c0.619-0.625,1.391-0.944,2.294-0.944
			c0.06,0,0.124,0.002,0.188,0.004c3.644,0.174,5.265,3.549,5.701,4.65c0.714,0.3,1.671,1.562,2.842,3.76
			c1.452,0.671,3.662,4.854,5.329,8.411c1.393,2.973,1.616,5.279,0.671,6.859c-1.256,2.096-4.114,2.251-5.333,2.315l-0.268,0.014
			c-0.1,0.009-0.203,0.014-0.306,0.014c-1.247,0-2.625-0.502-3.148-0.712c-3.356,1.187-18.939,5.217-21.919,5.984l0.671,6.268
			l2.333,1.488l1.096,9.51c0.188,1.629,0.327,3.02,0.448,4.207c0.594,5.832,0.729,6.18,2.42,6.248
			c2.835,0.109,25.435,3.529,35.533,6.613c3.938,1.199,6.089,2.738,6.391,4.572c0.263,1.613-0.982,2.879-1.525,3.346l0.096,4.143
			c0.826,1.389,1.071,2.613,0.721,3.643c-0.283,0.842-0.893,1.322-1.276,1.553c-0.628,7.385-5.002,28.91-5.192,29.836l-0.021,0.109
			l-0.066,0.092c-0.053,0.082-1.356,1.922-4.87,2.26C182.983,174.271,182.312,174.304,181.575,174.304z M155.948,156.712
			c0.11,2.957,0.735,7.057,2.185,7.729c5.952,2.756,18.5,4.182,23.585,4.305h0.119c0.096,0,0.173,0,0.24-0.004
			c-1.183-1.207-7.22-4.307-12.466-6.137C164.462,160.8,158.172,157.796,155.948,156.712 M155.962,145.431
			c-0.114,1.695-0.045,6.717,4.443,8.143c5.462,1.738,13.394,4.412,19.229,7.588c1.932,1.051,2.899,1.27,3.375,1.27
			c0.119,0,0.329-0.014,0.397-0.113c0.128-0.201,0.014-0.738-0.091-0.982l-0.057-0.143l2.361-16.84
			c-6.648,0.941-16.103,1.141-22.985,1.141C159.46,145.493,156.989,145.448,155.962,145.431 M155.245,139.138
			c1.457,0.072,6.719,0.316,12.772,0.316c6.457,0,11.704-0.266,15.647-0.791c-2.119-0.76-5.998-1.887-11.25-2.283
			c-5.299-0.402-9.201-1.23-11.786-1.781c-1.514-0.322-2.607-0.553-3.263-0.553c-0.263,0-0.527-0.01-0.79-0.018
			c-0.24-0.012-0.482-0.021-0.71-0.021c-0.717,0-1.117,0.098-1.292,0.318c-0.196,0.244-0.219,0.758-0.064,1.488l0.639,2.975
			L155.245,139.138z M118.244,136.44c1.004,0.109,22.403,2.445,26.818,2.652c0.317,0.014,0.605,0.021,0.863,0.021
			c1.091,0,1.552-0.123,1.735-0.201c-0.004-0.004-0.16-0.145-0.16-0.145l-0.037-0.199l-0.902-5.697
			c-0.824-0.201-3.199-0.732-7.77-1.385c-6.397-0.914-7.58-4.236-8.628-7.168c-0.267-0.744-0.733-2.107-1.29-3.744
			c-1.417-4.15-4.055-11.873-4.553-12.543c-0.228-0.225-2.021-0.965-3.917-0.965c-1.288,0-2.27,0.332-2.923,0.986
			c-1.493,1.492-5.413,8.27-8.274,13.221c-1.345,2.328-2.507,4.338-3.233,5.496c-1.247,1.979-1.255,2.434-1.23,2.527
			c0.032,0.029,0.217,0.107,0.34,0.158c0.214,0.092,0.475,0.201,0.737,0.385c0.594,0.416,2.217,1.336,3.934,2.309
			c1.319,0.746,2.685,1.521,3.895,2.238C116.216,135.909,118.008,136.384,118.244,136.44 M153.3,126.165
			c2.27,0.242,15.476,1.6,25.807,1.6c0.204,0,0.4,0,0.601,0c-6.731-1.361-19.122-3.775-25.918-4.566
			c-0.078-0.006-0.146-0.012-0.212-0.012c-0.35,0-0.468,0.115-0.542,0.217C152.699,123.909,152.966,125.224,153.3,126.165
			 M139.646,92.305c-0.507,0-1.137,0.241-1.804,0.497c-0.16,0.062-0.319,0.124-0.479,0.183c-1.452,0.534-5.912,1.822-8.864,2.672
			c-1.191,0.345-2.137,0.616-2.534,0.737c-0.904,0.278-3.516,2.454-3.429,3.694c0.048,0.646,1.039,0.938,1.863,1.068
			c5.251,0.825,6.612,5.005,7.427,7.505c0.08,0.256,0.162,0.502,0.24,0.727c0.356,1.02,0.765,2.242,1.261,3.721
			c0.694,2.07,1.557,4.643,2.671,7.869c1.418,4.092,2.694,4.191,5.229,4.389c0.646,0.049,1.379,0.104,2.199,0.234
			c0.704,0.111,1.299,0.166,1.772,0.166c0.553,0,0.801-0.072,0.902-0.123l-0.863-3.416c-7.502-0.41-9.117-5.967-9.132-6.021
			l-4.455-14.997l0.262-0.237c1.836-1.645,3.317-2.59,3.637-2.786l0.117-0.118l0.274-0.014c0.511,0,1.363,0,3.692,10.119
			c1.888,8.211,3.822,8.85,4.37,8.85c0.128,0,0.24-0.031,0.326-0.066c-0.374-2.523-2.653-17.807-3.137-21.88
			C140.856,92.305,140.009,92.305,139.646,92.305"/>
		<path fill="#979797" d="M192.507,138.562l-0.105-4.57c0,0,0.753-0.543,1.214-1.379l-0.007-0.297c0,0,0.087-0.059,0.217-0.174
			c0.507-1.451-0.141-3.516-5.891-5.273c-10.096-3.08-32.629-6.482-35.394-6.588c-2.763-0.105-2.338-1.701-3.397-10.947
			l-1.064-9.248l-2.338-1.488l-0.753-7.014l1.21-1.674c0,0,19.457-4.996,22.54-6.165c0,0,1.913,0.852,3.402,0.742
			c0.744-0.05,2.843-0.05,4.265-1.087c0.388-1.229,0.214-3.019-1.012-5.635c-3.934-8.393-5.208-8.183-5.208-8.183
			s-2.125-4.039-2.87-3.718c0,0-1.388-4.41-5.318-4.597c-0.694-0.032-1.251,0.153-1.703,0.477c-0.817,2.014-0.696,4.81-0.696,5.528
			c0,1.169,4.676,12.754,4.676,12.754s1.078-0.288,0,0c0.299,0.753-1.208,1.673-1.208,1.673s-31.036,8.291-36.67,9.884
			c-3.922,1.111-6.094,1.813-9.135,5.763c-1.018,1.493-2.151,3.333-3.47,5.636c-6.165,10.734-12.332,19.346-15.412,24.553
			c-3.083,5.209,0.742,5.313,2.763,6.377c2.018,1.064,9.247,5.209,10.946,6.164c1.703,0.957,5.101,2.443,11.162,2.656
			c6.058,0.215,25.296,1.703,25.296,1.703s2.123,14.771,2.443,16.9c0.32,2.123,1.274,5.631,4.144,7.328
			c2.87,1.703,21.09,5.701,28.377,4.998c1.603-0.152,2.699-0.637,3.407-1.094c0.804-3.994,4.584-22.973,5.06-29.33
			c0,0,0.758-0.301,1.158-1.104c0.021-0.199,0.034-0.389,0.048-0.572c0,0,0.064-0.023,0.155-0.072
			C193.452,140.786,193.292,139.831,192.507,138.562 M122.143,99.286c0.626-1.509,2.85-3.176,3.658-3.425
			c1.381-0.425,9.352-2.657,11.37-3.401c2.023-0.742,4.039-1.911,4.571,2.552c0.532,4.462,3.188,22.212,3.188,22.212l-1.208,1.676
			c0,0-3.08,3.082-5.845-8.93c-2.409-10.46-3.19-9.67-3.19-9.67s-0.92,0.553-2.249,1.613l4.204,14.141c0,0,1.489,5.422,9.035,5.635
			l0.957,3.787l-0.064,1.775c0,0-0.402,1.213-4.443,0.576c-4.037-0.637-5.95,0.531-7.863-4.996
			c-1.914-5.525-3.083-9.143-3.932-11.584c-0.85-2.445-1.809-7.016-7.229-7.863C119.67,102.845,120.629,100.812,122.143,99.286
			 M143.829,141.325c-4.571-0.213-26.892-2.658-26.892-2.658s-1.913-0.424-4.781-2.125c-2.872-1.701-6.804-3.824-7.866-4.568
			c-1.062-0.744-2.338-0.107,0-3.828c2.203-3.506,8.553-15.113,11.149-18.314c0.667-1,1.237-1.764,1.644-2.17
			c2.233-2.232,7.014-0.639,7.653,0c0.64,0.635,4.891,13.496,5.953,16.471c1.062,2.979,2.23,5.955,8.183,6.805
			c5.953,0.85,8.186,1.488,8.186,1.488l0.957,6.057C148.014,138.481,148.398,141.538,143.829,141.325 M153.04,122.722
			c2.667-0.512,31.428,5.449,31.428,5.449c0.303,0.479-1.208,1.674-1.208,1.674c-11.48,0.746-31.565-1.486-31.565-1.486
			S149.848,122.671,153.04,122.722 M153.606,141.345l-0.212-0.764l-0.637-2.975c-0.37-1.732,0.178-4.018,1.089-4.168
			c2.176-0.277,1.792,0.047,3.521,0.047c1.911,0,6.696,1.703,15.092,2.338c8.397,0.639,13.286,3.084,13.286,3.084
			c-1.26,0.227,1.475-0.148,0,0c1.9,0.613-1.208,1.674-1.208,1.674C173.798,142.493,153.606,141.345,153.606,141.345
			 M181.705,169.304c-0.418-0.01,1.665-0.143,1.112-0.174c-0.466,0.771-0.601,1.891-2.32,1.85
			c-4.466-0.105-17.469-1.426-23.809-4.361c-2.525-1.17-2.525-9.137-2.525-9.137s0.379-2.078,1.21-1.676c-0.11-1.332,0,0,0,0
			s8.042,4.039,14.425,6.271C176.177,164.308,186.168,169.407,181.705,169.304 M178.159,163.325
			c-6.06-3.295-14.455-6.059-19.133-7.547c-4.676-1.486-5.101-6.695-4.781-9.248c0,0,0.488-1.686,1.21-1.674
			c-0.021-0.629-0.062,0.486,0,0c0,0,19.873,0.533,30.821-1.168l-2.445,17.432C183.831,161.12,183.429,166.19,178.159,163.325"/>
		<path fill="#979797" d="M44.081,157.241c-1.438-3.402-2.288-12.012-16.638-18.066c-11.916-5.033-17.251-7.457-18.717-8.135
			l5.222,19.344c0,0-1.489,4.781,2.975,6.273c4.464,1.486,26.359,6.27,26.359,6.27s0.299,0.098,0.683,0.143
			c-0.029-0.104-0.048-0.205-0.089-0.318C42.857,159.687,45.52,160.644,44.081,157.241"/>
		<polygon fill="#2B388F" points="131.171,103.062 137.619,97.766 136.685,96.312 129.468,100.948 		"/>
		<path fill="#C9E8EF" d="M131.13,55.344c-1.667,5.062-8.648,7.311-15.599,5.024c-6.95-2.284-11.236-8.241-9.571-13.301
			c1.662-5.062,8.646-7.311,15.597-5.026C128.509,44.328,132.792,50.282,131.13,55.344"/>
		<path fill="#2B388F" d="M69.406,142.284c4.11,5.355,10.893,7.68,13.927,8.57c3.037,0.895,7.856,0.715,10.357-1.785
			c2.498-2.498,7.856-6.607,5.534-9.463c-2.32-2.857-26.426-15.711-31.248-15.178C65.214,124.073,65.299,136.927,69.406,142.284"/>
		<path fill="#2B388F" d="M52.049,118.534l9.686,3.521c0,0-0.45,4.584-0.847,8.662c-0.397,4.072-2.436,3.877-5.092,0.785
			C53.141,128.415,52.041,126.507,52.049,118.534"/>
		<path fill="#979797" d="M96.526,144.991c-2.502,2.498-7.322,2.682-10.356,1.785c-3.037-0.893-9.822-3.215-13.928-8.57
			c-2.559-3.338-3.557-9.59-3.274-13.74c-0.383-0.051-0.721-0.064-0.991-0.037c-2.761-0.355-2.676,12.498,1.429,17.855
			c4.107,5.357,10.893,7.678,13.927,8.57c3.035,0.893,7.854,0.717,10.357-1.785c1.868-1.867,5.333-4.635,5.993-7.105
			C98.576,143.087,97.382,144.134,96.526,144.991"/>
		<path fill="#979797" d="M57.933,127.524c-2.011-2.34-3.128-4.006-3.55-8.141l-2.333-0.85c-0.009,7.973,1.091,9.881,3.747,12.971
			c2.656,3.09,4.694,3.285,5.094-0.787c0.027-0.307,0.057-0.607,0.086-0.914C60.136,129.673,59.095,128.876,57.933,127.524"/>
	</g>
</g>
</svg>
