<?xml version="1.0" encoding="utf-8"?>
<!-- Generator: Adobe Illustrator 16.0.0, SVG Export Plug-In . SVG Version: 6.00 Build 0)  -->
<!DOCTYPE svg PUBLIC "-//W3C//DTD SVG 1.1//EN" "http://www.w3.org/Graphics/SVG/1.1/DTD/svg11.dtd">
<svg version="1.1" id="Layer_1" xmlns="http://www.w3.org/2000/svg" xmlns:xlink="http://www.w3.org/1999/xlink" x="0px" y="0px"
	 width="200px" height="200px" viewBox="0 0 200 200" enable-background="new 0 0 200 200" xml:space="preserve">
<g>
	<g>
		<defs>
			<polygon id="SVGID_1_" points="113.723,30.483 113.823,30.584 100.001,44.409 86.177,30.584 86.278,30.483 70.124,27.188 
				73.405,43.266 73.376,43.296 91.816,61.738 100.001,53.556 108.186,61.738 126.628,43.296 126.596,43.266 129.877,27.188 			"/>
		</defs>
		<clipPath id="SVGID_2_">
			<use xlink:href="#SVGID_1_"  overflow="visible"/>
		</clipPath>
		
			<linearGradient id="SVGID_3_" gradientUnits="userSpaceOnUse" x1="-713.0708" y1="160.2813" x2="-712.4154" y2="160.2813" gradientTransform="matrix(-75.2933 -43.4706 -43.4706 75.2933 -46602.3906 -43010.0469)">
			<stop  offset="0" style="stop-color:#D9F1FD"/>
			<stop  offset="0.1223" style="stop-color:#CBECFB"/>
			<stop  offset="0.3519" style="stop-color:#A7DDF5"/>
			<stop  offset="0.6643" style="stop-color:#6DC6EC"/>
			<stop  offset="1" style="stop-color:#27AAE1"/>
		</linearGradient>
		<polygon clip-path="url(#SVGID_2_)" fill="url(#SVGID_3_)" points="114.939,87.612 55.164,53.101 85.063,1.313 144.838,35.825 		
			"/>
	</g>
	<g>
		
			<linearGradient id="SVGID_4_" gradientUnits="userSpaceOnUse" x1="-707.9722" y1="156.3359" x2="-707.3165" y2="156.3359" gradientTransform="matrix(39.573 -68.5425 -68.5425 -39.573 38816.7305 -42280.6094)">
			<stop  offset="0" style="stop-color:#0082B7"/>
			<stop  offset="0.1826" style="stop-color:#0687BC"/>
			<stop  offset="0.4366" style="stop-color:#1896C8"/>
			<stop  offset="0.7309" style="stop-color:#36AFDD"/>
			<stop  offset="1" style="stop-color:#57CBF5"/>
		</linearGradient>
		<polygon fill="url(#SVGID_4_)" points="129.877,27.188 130.009,27.829 113.854,31.125 113.723,30.482 114.188,30.021 
			114.289,30.122 114.749,30.585 100,45.335 85.251,30.584 85.815,30.02 86.279,30.482 86.147,31.125 70.966,28.027 74.117,43.475 
			73.845,43.754 73.376,43.294 73.84,42.832 91.818,60.812 100,52.629 108.185,60.812 126.164,42.832 126.627,43.294 
			126.169,43.764 126.138,43.734 125.882,43.484 129.235,27.057 129.877,27.188 130.009,27.829 129.877,27.188 130.519,27.318 
			127.237,43.396 126.596,43.265 127.056,42.797 127.085,42.826 127.559,43.291 108.185,62.666 100,54.482 91.816,62.666 
			72.454,43.301 72.694,43.056 69.285,26.347 87.604,30.085 87.103,30.584 100,43.481 113.36,30.121 113.823,30.584 113.359,31.047 
			113.258,30.945 112.401,30.084 130.718,26.347 130.519,27.318 		"/>
	</g>
	<g>
		<defs>
			<polygon id="SVGID_5_" points="100.001,143.744 91.816,135.561 73.376,154.004 73.405,154.032 70.124,170.11 86.278,166.814 
				86.177,166.714 100.001,152.889 113.823,166.714 113.723,166.814 129.877,170.11 126.596,154.032 126.628,154.004 
				108.186,135.561 			"/>
		</defs>
		<clipPath id="SVGID_6_">
			<use xlink:href="#SVGID_5_"  overflow="visible"/>
		</clipPath>
		
			<linearGradient id="SVGID_7_" gradientUnits="userSpaceOnUse" x1="-711.9995" y1="158.4258" x2="-711.3439" y2="158.4258" gradientTransform="matrix(-75.2933 43.4706 -43.4706 -75.2933 -46602.3906 43021.0156)">
			<stop  offset="0" style="stop-color:#D9F1FD"/>
			<stop  offset="0.1223" style="stop-color:#CBECFB"/>
			<stop  offset="0.3519" style="stop-color:#A7DDF5"/>
			<stop  offset="0.6643" style="stop-color:#6DC6EC"/>
			<stop  offset="1" style="stop-color:#27AAE1"/>
		</linearGradient>
		<polygon clip-path="url(#SVGID_6_)" fill="url(#SVGID_7_)" points="114.939,109.686 55.164,144.197 85.063,195.985 
			144.838,161.475 		"/>
	</g>
	<g>
		
			<linearGradient id="SVGID_8_" gradientUnits="userSpaceOnUse" x1="-707.2734" y1="156.7813" x2="-706.6179" y2="156.7813" gradientTransform="matrix(39.5737 -68.5436 -68.5436 -39.5737 38825.3633 -42091.3281)">
			<stop  offset="0" style="stop-color:#0082B7"/>
			<stop  offset="0.1826" style="stop-color:#0687BC"/>
			<stop  offset="0.4366" style="stop-color:#1896C8"/>
			<stop  offset="0.7309" style="stop-color:#36AFDD"/>
			<stop  offset="1" style="stop-color:#57CBF5"/>
		</linearGradient>
		<polygon fill="url(#SVGID_8_)" points="129.877,170.11 129.746,170.754 112.397,167.213 112.897,166.714 100,153.816 
			86.641,167.176 86.177,166.713 86.639,166.248 86.741,166.35 87.609,167.212 69.285,170.951 72.763,153.901 73.405,154.032 
			72.941,154.496 72.913,154.467 72.448,154.004 91.816,134.634 100,142.815 108.185,134.634 127.564,154.014 127.312,154.257 
			130.718,170.951 129.746,170.754 129.877,170.11 129.235,170.242 125.882,153.809 126.174,153.529 126.627,154.004 
			126.164,154.467 108.185,136.487 100,144.67 91.818,136.487 73.84,154.467 73.376,154.004 73.84,153.539 73.87,153.569 
			74.119,153.818 70.966,169.271 86.147,166.173 86.279,166.814 85.816,167.279 85.715,167.178 85.247,166.715 100,151.962 
			114.752,166.713 114.186,167.277 113.723,166.814 113.854,166.173 130.009,169.469 129.877,170.11 129.235,170.242 		"/>
	</g>
	<g>
		<defs>
			<polygon id="SVGID_9_" points="113.723,30.483 113.823,30.584 100.001,44.409 86.177,30.584 86.278,30.483 70.124,27.188 
				73.405,43.266 73.376,43.296 91.816,61.738 100.001,53.556 108.186,61.738 126.628,43.296 126.596,43.266 129.877,27.188 			"/>
		</defs>
		<clipPath id="SVGID_10_">
			<use xlink:href="#SVGID_9_"  overflow="visible"/>
		</clipPath>
		
			<linearGradient id="SVGID_11_" gradientUnits="userSpaceOnUse" x1="-713.0708" y1="160.2813" x2="-712.4154" y2="160.2813" gradientTransform="matrix(-75.2933 -43.4706 -43.4706 75.2933 -46602.3906 -43010.0469)">
			<stop  offset="0" style="stop-color:#D9F1FD"/>
			<stop  offset="0.1223" style="stop-color:#CBECFB"/>
			<stop  offset="0.3519" style="stop-color:#A7DDF5"/>
			<stop  offset="0.6643" style="stop-color:#6DC6EC"/>
			<stop  offset="1" style="stop-color:#27AAE1"/>
		</linearGradient>
		<polygon clip-path="url(#SVGID_10_)" fill="url(#SVGID_11_)" points="114.939,87.612 55.164,53.101 85.063,1.313 144.838,35.825 
					"/>
	</g>
	<g>
		
			<linearGradient id="SVGID_12_" gradientUnits="userSpaceOnUse" x1="-707.9722" y1="156.3359" x2="-707.3165" y2="156.3359" gradientTransform="matrix(39.573 -68.5425 -68.5425 -39.573 38816.7305 -42280.6094)">
			<stop  offset="0" style="stop-color:#0082B7"/>
			<stop  offset="0.1826" style="stop-color:#0687BC"/>
			<stop  offset="0.4366" style="stop-color:#1896C8"/>
			<stop  offset="0.7309" style="stop-color:#36AFDD"/>
			<stop  offset="1" style="stop-color:#57CBF5"/>
		</linearGradient>
		<polygon fill="url(#SVGID_12_)" points="129.877,27.188 130.009,27.829 113.854,31.125 113.723,30.482 114.188,30.021 
			114.289,30.122 114.749,30.585 100,45.335 85.251,30.584 85.815,30.02 86.279,30.482 86.147,31.125 70.966,28.027 74.117,43.475 
			73.845,43.754 73.376,43.294 73.84,42.832 91.818,60.812 100,52.629 108.185,60.812 126.164,42.832 126.627,43.294 
			126.169,43.764 126.138,43.734 125.882,43.484 129.235,27.057 129.877,27.188 130.009,27.829 129.877,27.188 130.519,27.318 
			127.237,43.396 126.596,43.265 127.056,42.797 127.085,42.826 127.559,43.291 108.185,62.666 100,54.482 91.816,62.666 
			72.454,43.301 72.694,43.056 69.285,26.347 87.604,30.085 87.103,30.584 100,43.481 113.36,30.121 113.823,30.584 113.359,31.047 
			113.258,30.945 112.401,30.084 130.718,26.347 130.519,27.318 		"/>
	</g>
	<g>
		<defs>
			<polygon id="SVGID_13_" points="100.001,143.744 91.816,135.561 73.376,154.004 73.405,154.032 70.124,170.11 86.278,166.814 
				86.177,166.714 100.001,152.889 113.823,166.714 113.723,166.814 129.877,170.11 126.596,154.032 126.628,154.004 
				108.186,135.561 			"/>
		</defs>
		<clipPath id="SVGID_14_">
			<use xlink:href="#SVGID_13_"  overflow="visible"/>
		</clipPath>
		
			<linearGradient id="SVGID_15_" gradientUnits="userSpaceOnUse" x1="-711.9995" y1="158.4258" x2="-711.3439" y2="158.4258" gradientTransform="matrix(-75.2933 43.4706 -43.4706 -75.2933 -46602.3906 43021.0156)">
			<stop  offset="0" style="stop-color:#D9F1FD"/>
			<stop  offset="0.1223" style="stop-color:#CBECFB"/>
			<stop  offset="0.3519" style="stop-color:#A7DDF5"/>
			<stop  offset="0.6643" style="stop-color:#6DC6EC"/>
			<stop  offset="1" style="stop-color:#27AAE1"/>
		</linearGradient>
		<polygon clip-path="url(#SVGID_14_)" fill="url(#SVGID_15_)" points="114.939,109.686 55.164,144.197 85.063,195.985 
			144.838,161.475 		"/>
	</g>
	<g>
		
			<linearGradient id="SVGID_16_" gradientUnits="userSpaceOnUse" x1="-707.2734" y1="156.7813" x2="-706.6179" y2="156.7813" gradientTransform="matrix(39.5737 -68.5436 -68.5436 -39.5737 38825.3633 -42091.3281)">
			<stop  offset="0" style="stop-color:#0082B7"/>
			<stop  offset="0.1826" style="stop-color:#0687BC"/>
			<stop  offset="0.4366" style="stop-color:#1896C8"/>
			<stop  offset="0.7309" style="stop-color:#36AFDD"/>
			<stop  offset="1" style="stop-color:#57CBF5"/>
		</linearGradient>
		<polygon fill="url(#SVGID_16_)" points="129.877,170.11 129.746,170.754 112.397,167.213 112.897,166.714 100,153.816 
			86.641,167.176 86.177,166.713 86.639,166.248 86.741,166.35 87.609,167.212 69.285,170.951 72.763,153.901 73.405,154.032 
			72.941,154.496 72.913,154.467 72.448,154.004 91.816,134.634 100,142.815 108.185,134.634 127.564,154.014 127.312,154.257 
			130.718,170.951 129.746,170.754 129.877,170.11 129.235,170.242 125.882,153.809 126.174,153.529 126.627,154.004 
			126.164,154.467 108.185,136.487 100,144.67 91.818,136.487 73.84,154.467 73.376,154.004 73.84,153.539 73.87,153.569 
			74.119,153.818 70.966,169.271 86.147,166.173 86.279,166.814 85.816,167.279 85.715,167.178 85.247,166.715 100,151.962 
			114.752,166.713 114.186,167.277 113.723,166.814 113.854,166.173 130.009,169.469 129.877,170.11 129.235,170.242 		"/>
	</g>
	<g>
		<defs>
			<polygon id="SVGID_17_" points="47.83,52.684 47.967,52.646 53.025,71.53 34.143,76.588 34.106,76.45 23.174,88.791 
				38.739,93.989 38.751,94.03 63.943,87.28 60.948,76.102 72.127,73.107 65.374,47.913 65.335,47.924 53.051,37.045 			"/>
		</defs>
		<clipPath id="SVGID_18_">
			<use xlink:href="#SVGID_17_"  overflow="visible"/>
		</clipPath>
		
			<linearGradient id="SVGID_19_" gradientUnits="userSpaceOnUse" x1="-711.999" y1="164.2422" x2="-711.3436" y2="164.2422" gradientTransform="matrix(-75.291 43.468 43.468 75.291 -60677.75 18636.7422)">
			<stop  offset="0" style="stop-color:#D9F1FD"/>
			<stop  offset="0.1223" style="stop-color:#CBECFB"/>
			<stop  offset="0.3519" style="stop-color:#A7DDF5"/>
			<stop  offset="0.6643" style="stop-color:#6DC6EC"/>
			<stop  offset="1" style="stop-color:#27AAE1"/>
		</linearGradient>
		<polygon clip-path="url(#SVGID_18_)" fill="url(#SVGID_19_)" points="96.802,79.785 35.411,115.227 -1.501,51.29 59.889,15.848 		
			"/>
	</g>
	<g>
		
			<linearGradient id="SVGID_20_" gradientUnits="userSpaceOnUse" x1="-707.8242" y1="157.001" x2="-707.1683" y2="157.001" gradientTransform="matrix(47.5027 -82.2771 -82.2771 -47.5027 46578.6406 -50681.2031)">
			<stop  offset="0" style="stop-color:#0082B7"/>
			<stop  offset="0.1826" style="stop-color:#0687BC"/>
			<stop  offset="0.4366" style="stop-color:#1896C8"/>
			<stop  offset="0.7309" style="stop-color:#36AFDD"/>
			<stop  offset="1" style="stop-color:#57CBF5"/>
		</linearGradient>
		<polygon fill="url(#SVGID_20_)" points="53.051,37.045 53.673,37.252 48.45,52.891 47.83,52.684 47.657,52.05 47.796,52.014 
			48.43,51.84 53.828,71.993 33.674,77.393 33.473,76.614 34.106,76.45 34.598,76.885 24.322,88.483 39.281,93.479 39.383,93.859 
			38.751,94.03 38.58,93.397 63.141,86.816 60.146,75.639 71.324,72.645 64.741,48.083 65.374,47.913 65.551,48.545 65.511,48.557 
			65.166,48.652 52.615,37.535 53.051,37.045 53.673,37.252 53.051,37.045 53.485,36.554 65.769,47.434 65.335,47.924 
			65.158,47.293 65.198,47.282 65.836,47.104 72.93,73.572 61.751,76.566 64.746,87.743 38.288,94.833 38.198,94.498 22.027,89.1 
			34.433,75.094 34.612,75.783 52.223,71.065 47.334,52.815 47.967,52.646 48.139,53.277 48.001,53.315 46.819,53.637 
			52.743,35.897 53.485,36.554 		"/>
	</g>
	<g>
		<defs>
			<polygon id="SVGID_21_" points="136.058,110.019 139.053,121.196 127.874,124.19 134.627,149.385 134.666,149.373 
				146.95,160.253 152.171,144.616 152.034,144.652 146.976,125.771 165.858,120.71 165.895,120.848 176.827,108.506 
				161.262,103.309 161.25,103.268 			"/>
		</defs>
		<clipPath id="SVGID_22_">
			<use xlink:href="#SVGID_21_"  overflow="visible"/>
		</clipPath>
		
			<linearGradient id="SVGID_23_" gradientUnits="userSpaceOnUse" x1="-707.9561" y1="157.2676" x2="-707.3003" y2="157.2676" gradientTransform="matrix(-0.0011 86.9384 -86.9384 -0.0011 13824.1094 61652.0664)">
			<stop  offset="0" style="stop-color:#D9F1FD"/>
			<stop  offset="0.1223" style="stop-color:#CBECFB"/>
			<stop  offset="0.3519" style="stop-color:#A7DDF5"/>
			<stop  offset="0.6643" style="stop-color:#6DC6EC"/>
			<stop  offset="1" style="stop-color:#27AAE1"/>
		</linearGradient>
		<rect x="127.874" y="103.268" clip-path="url(#SVGID_22_)" fill="url(#SVGID_23_)" width="48.954" height="56.985"/>
	</g>
	<g>
		
			<linearGradient id="SVGID_24_" gradientUnits="userSpaceOnUse" x1="-707.8242" y1="157.5996" x2="-707.1691" y2="157.5996" gradientTransform="matrix(47.5024 -82.2766 -82.2766 -47.5024 46721.4375 -50598.3672)">
			<stop  offset="0" style="stop-color:#0082B7"/>
			<stop  offset="0.1826" style="stop-color:#0687BC"/>
			<stop  offset="0.4366" style="stop-color:#1896C8"/>
			<stop  offset="0.7309" style="stop-color:#36AFDD"/>
			<stop  offset="1" style="stop-color:#57CBF5"/>
		</linearGradient>
		<polygon fill="url(#SVGID_24_)" points="176.827,108.506 177.317,108.94 165.57,122.204 165.39,121.515 147.778,126.232 
			152.668,144.482 152.034,144.652 151.865,144.019 152.002,143.982 153.179,143.667 147.258,161.4 134.232,149.862 
			134.666,149.373 134.842,150.004 134.802,150.015 134.164,150.192 127.071,123.728 138.249,120.733 135.255,109.556 
			161.717,102.465 161.805,102.8 177.975,108.198 177.317,108.94 176.827,108.506 176.618,109.128 160.718,103.82 160.617,103.435 
			161.25,103.268 161.421,103.9 136.86,110.482 139.856,121.66 128.678,124.654 135.26,149.215 134.627,149.385 134.451,148.754 
			134.49,148.741 134.834,148.646 146.643,159.104 151.551,144.407 152.171,144.616 152.34,145.249 152.204,145.286 
			151.571,145.455 146.172,125.307 166.326,119.905 166.528,120.683 165.895,120.848 165.404,120.413 176.336,108.07 
			176.827,108.506 176.618,109.128 		"/>
	</g>
	<g>
		<defs>
			<polygon id="SVGID_25_" points="47.83,52.684 47.967,52.646 53.025,71.53 34.143,76.588 34.106,76.45 23.174,88.791 
				38.739,93.989 38.751,94.03 63.943,87.28 60.948,76.102 72.127,73.107 65.374,47.913 65.335,47.924 53.051,37.045 			"/>
		</defs>
		<clipPath id="SVGID_26_">
			<use xlink:href="#SVGID_25_"  overflow="visible"/>
		</clipPath>
		
			<linearGradient id="SVGID_27_" gradientUnits="userSpaceOnUse" x1="-711.999" y1="164.2422" x2="-711.3436" y2="164.2422" gradientTransform="matrix(-75.291 43.468 43.468 75.291 -60677.75 18636.7422)">
			<stop  offset="0" style="stop-color:#D9F1FD"/>
			<stop  offset="0.1223" style="stop-color:#CBECFB"/>
			<stop  offset="0.3519" style="stop-color:#A7DDF5"/>
			<stop  offset="0.6643" style="stop-color:#6DC6EC"/>
			<stop  offset="1" style="stop-color:#27AAE1"/>
		</linearGradient>
		<polygon clip-path="url(#SVGID_26_)" fill="url(#SVGID_27_)" points="96.802,79.785 35.411,115.227 -1.501,51.29 59.889,15.848 		
			"/>
	</g>
	<g>
		
			<linearGradient id="SVGID_28_" gradientUnits="userSpaceOnUse" x1="-707.8242" y1="157.001" x2="-707.1683" y2="157.001" gradientTransform="matrix(47.5027 -82.2771 -82.2771 -47.5027 46578.6406 -50681.2031)">
			<stop  offset="0" style="stop-color:#0082B7"/>
			<stop  offset="0.1826" style="stop-color:#0687BC"/>
			<stop  offset="0.4366" style="stop-color:#1896C8"/>
			<stop  offset="0.7309" style="stop-color:#36AFDD"/>
			<stop  offset="1" style="stop-color:#57CBF5"/>
		</linearGradient>
		<polygon fill="url(#SVGID_28_)" points="53.051,37.045 53.673,37.252 48.45,52.891 47.83,52.684 47.657,52.05 47.796,52.014 
			48.43,51.84 53.828,71.993 33.674,77.393 33.473,76.614 34.106,76.45 34.598,76.885 24.322,88.483 39.281,93.479 39.383,93.859 
			38.751,94.03 38.58,93.397 63.141,86.816 60.146,75.639 71.324,72.645 64.741,48.083 65.374,47.913 65.551,48.545 65.511,48.557 
			65.166,48.652 52.615,37.535 53.051,37.045 53.673,37.252 53.051,37.045 53.485,36.554 65.769,47.434 65.335,47.924 
			65.158,47.293 65.198,47.282 65.836,47.104 72.93,73.572 61.751,76.566 64.746,87.743 38.288,94.833 38.198,94.498 22.027,89.1 
			34.433,75.094 34.612,75.783 52.223,71.065 47.334,52.815 47.967,52.646 48.139,53.277 48.001,53.315 46.819,53.637 
			52.743,35.897 53.485,36.554 		"/>
	</g>
	<g>
		<defs>
			<polygon id="SVGID_29_" points="136.058,110.019 139.053,121.196 127.874,124.19 134.627,149.385 134.666,149.373 
				146.95,160.253 152.171,144.616 152.034,144.652 146.976,125.771 165.858,120.71 165.895,120.848 176.827,108.506 
				161.262,103.309 161.25,103.268 			"/>
		</defs>
		<clipPath id="SVGID_30_">
			<use xlink:href="#SVGID_29_"  overflow="visible"/>
		</clipPath>
		
			<linearGradient id="SVGID_31_" gradientUnits="userSpaceOnUse" x1="-707.9561" y1="157.2676" x2="-707.3003" y2="157.2676" gradientTransform="matrix(-0.0011 86.9384 -86.9384 -0.0011 13824.1094 61652.0664)">
			<stop  offset="0" style="stop-color:#D9F1FD"/>
			<stop  offset="0.1223" style="stop-color:#CBECFB"/>
			<stop  offset="0.3519" style="stop-color:#A7DDF5"/>
			<stop  offset="0.6643" style="stop-color:#6DC6EC"/>
			<stop  offset="1" style="stop-color:#27AAE1"/>
		</linearGradient>
		<rect x="127.874" y="103.268" clip-path="url(#SVGID_30_)" fill="url(#SVGID_31_)" width="48.954" height="56.985"/>
	</g>
	<g>
		
			<linearGradient id="SVGID_32_" gradientUnits="userSpaceOnUse" x1="-707.8242" y1="157.5996" x2="-707.1691" y2="157.5996" gradientTransform="matrix(47.5024 -82.2766 -82.2766 -47.5024 46721.4375 -50598.3672)">
			<stop  offset="0" style="stop-color:#0082B7"/>
			<stop  offset="0.1826" style="stop-color:#0687BC"/>
			<stop  offset="0.4366" style="stop-color:#1896C8"/>
			<stop  offset="0.7309" style="stop-color:#36AFDD"/>
			<stop  offset="1" style="stop-color:#57CBF5"/>
		</linearGradient>
		<polygon fill="url(#SVGID_32_)" points="176.827,108.506 177.317,108.94 165.57,122.204 165.39,121.515 147.778,126.232 
			152.668,144.482 152.034,144.652 151.865,144.019 152.002,143.982 153.179,143.667 147.258,161.4 134.232,149.862 
			134.666,149.373 134.842,150.004 134.802,150.015 134.164,150.192 127.071,123.728 138.249,120.733 135.255,109.556 
			161.717,102.465 161.805,102.8 177.975,108.198 177.317,108.94 176.827,108.506 176.618,109.128 160.718,103.82 160.617,103.435 
			161.25,103.268 161.421,103.9 136.86,110.482 139.856,121.66 128.678,124.654 135.26,149.215 134.627,149.385 134.451,148.754 
			134.49,148.741 134.834,148.646 146.643,159.104 151.551,144.407 152.171,144.616 152.34,145.249 152.204,145.286 
			151.571,145.455 146.172,125.307 166.326,119.905 166.528,120.683 165.895,120.848 165.404,120.413 176.336,108.07 
			176.827,108.506 176.618,109.128 		"/>
	</g>
	<g>
		<defs>
			<polygon id="SVGID_33_" points="38.739,103.309 23.174,108.506 34.106,120.848 34.143,120.71 53.025,125.771 47.967,144.652 
				47.83,144.616 53.051,160.253 65.335,149.373 65.374,149.385 72.125,124.19 60.948,121.196 63.943,110.019 38.751,103.268 			"/>
		</defs>
		<clipPath id="SVGID_34_">
			<use xlink:href="#SVGID_33_"  overflow="visible"/>
		</clipPath>
		
			<linearGradient id="SVGID_35_" gradientUnits="userSpaceOnUse" x1="-707.9556" y1="165.3672" x2="-707.3003" y2="165.3672" gradientTransform="matrix(0.0011 86.9384 86.9384 -0.0011 -14328.2344 61652.0664)">
			<stop  offset="0" style="stop-color:#D9F1FD"/>
			<stop  offset="0.1223" style="stop-color:#CBECFB"/>
			<stop  offset="0.3519" style="stop-color:#A7DDF5"/>
			<stop  offset="0.6643" style="stop-color:#6DC6EC"/>
			<stop  offset="1" style="stop-color:#27AAE1"/>
		</linearGradient>
		<rect x="23.174" y="103.268" clip-path="url(#SVGID_34_)" fill="url(#SVGID_35_)" width="48.951" height="56.985"/>
	</g>
	<g>
		
			<linearGradient id="SVGID_36_" gradientUnits="userSpaceOnUse" x1="-707.2734" y1="156.3359" x2="-706.6177" y2="156.3359" gradientTransform="matrix(39.5721 -68.5409 -68.5409 -39.5721 38735.5938 -42140.5938)">
			<stop  offset="0" style="stop-color:#0082B7"/>
			<stop  offset="0.1826" style="stop-color:#0687BC"/>
			<stop  offset="0.4366" style="stop-color:#1896C8"/>
			<stop  offset="0.7309" style="stop-color:#36AFDD"/>
			<stop  offset="1" style="stop-color:#57CBF5"/>
		</linearGradient>
		<polygon fill="url(#SVGID_36_)" points="23.176,108.506 23.665,108.07 34.597,120.413 34.106,120.848 33.473,120.683 
			33.508,120.544 33.675,119.905 53.828,125.307 48.43,145.455 47.66,145.249 47.83,144.616 48.451,144.407 53.358,159.104 
			65.166,148.646 65.551,148.754 65.375,149.385 64.741,149.215 71.32,124.654 60.146,121.66 63.141,110.482 38.58,103.9 
			38.75,103.268 39.383,103.435 39.373,103.478 39.281,103.82 23.383,109.128 23.176,108.506 23.665,108.07 23.176,108.506 
			22.967,107.885 38.532,102.687 38.739,103.309 38.105,103.141 38.117,103.099 38.286,102.465 64.746,109.556 61.751,120.733 
			72.928,123.728 65.836,150.192 65.503,150.101 52.743,161.4 46.822,143.667 47.502,143.85 52.223,126.232 33.974,121.344 
			34.143,120.71 34.776,120.875 34.74,121.014 34.431,122.204 22.027,108.198 22.967,107.885 		"/>
	</g>
	<g>
		<defs>
			<polygon id="SVGID_37_" points="134.666,47.924 134.627,47.913 127.874,73.107 139.053,76.102 136.058,87.28 161.25,94.03 
				161.262,93.989 176.824,88.791 165.895,76.45 165.858,76.588 146.976,71.53 152.034,52.646 152.171,52.684 146.95,37.045 			"/>
		</defs>
		<clipPath id="SVGID_38_">
			<use xlink:href="#SVGID_37_"  overflow="visible"/>
		</clipPath>
		
			<linearGradient id="SVGID_39_" gradientUnits="userSpaceOnUse" x1="-704.9844" y1="160.1914" x2="-704.3287" y2="160.1914" gradientTransform="matrix(75.2892 43.467 -43.467 75.2892 60172.1523 18636.3438)">
			<stop  offset="0" style="stop-color:#D9F1FD"/>
			<stop  offset="0.1223" style="stop-color:#CBECFB"/>
			<stop  offset="0.3519" style="stop-color:#A7DDF5"/>
			<stop  offset="0.6643" style="stop-color:#6DC6EC"/>
			<stop  offset="1" style="stop-color:#27AAE1"/>
		</linearGradient>
		<polygon clip-path="url(#SVGID_38_)" fill="url(#SVGID_39_)" points="103.199,79.785 164.587,115.227 201.501,51.29 
			140.111,15.85 		"/>
	</g>
	<g>
		
			<linearGradient id="SVGID_40_" gradientUnits="userSpaceOnUse" x1="-707.9722" y1="156.7813" x2="-707.317" y2="156.7813" gradientTransform="matrix(39.5732 -68.5429 -68.5429 -39.5732 38905.0938 -42229.9609)">
			<stop  offset="0" style="stop-color:#0082B7"/>
			<stop  offset="0.1826" style="stop-color:#0687BC"/>
			<stop  offset="0.4366" style="stop-color:#1896C8"/>
			<stop  offset="0.7309" style="stop-color:#36AFDD"/>
			<stop  offset="1" style="stop-color:#57CBF5"/>
		</linearGradient>
		<polygon fill="url(#SVGID_40_)" points="146.95,37.045 147.571,36.836 153.182,53.637 152.497,53.45 147.778,71.065 
			166.027,75.956 165.858,76.588 165.223,76.424 165.26,76.284 165.569,75.093 177.973,89.1 161.469,94.611 161.262,93.989 
			161.894,94.16 161.884,94.201 161.713,94.833 135.254,87.743 138.251,76.566 127.071,73.572 134.164,47.104 134.499,47.197 
			147.258,35.897 147.571,36.836 146.95,37.045 147.386,37.535 134.834,48.652 134.451,48.545 134.627,47.913 135.26,48.083 
			128.678,72.644 139.856,75.639 136.86,86.816 161.421,93.397 161.25,94.03 160.617,93.859 160.628,93.818 160.719,93.479 
			175.678,88.483 165.403,76.885 165.895,76.45 166.528,76.614 166.493,76.752 166.326,77.393 146.173,71.993 151.571,51.84 
			152.343,52.05 152.171,52.684 151.551,52.891 146.328,37.252 146.95,37.045 147.386,37.535 		"/>
	</g>
	<g>
		<defs>
			<polygon id="SVGID_41_" points="38.739,103.309 23.174,108.506 34.106,120.848 34.143,120.71 53.025,125.771 47.967,144.652 
				47.83,144.616 53.051,160.253 65.335,149.373 65.374,149.385 72.125,124.19 60.948,121.196 63.943,110.019 38.751,103.268 			"/>
		</defs>
		<clipPath id="SVGID_42_">
			<use xlink:href="#SVGID_41_"  overflow="visible"/>
		</clipPath>
		
			<linearGradient id="SVGID_43_" gradientUnits="userSpaceOnUse" x1="-707.9556" y1="165.3672" x2="-707.3003" y2="165.3672" gradientTransform="matrix(0.0011 86.9384 86.9384 -0.0011 -14328.2344 61652.0664)">
			<stop  offset="0" style="stop-color:#D9F1FD"/>
			<stop  offset="0.1223" style="stop-color:#CBECFB"/>
			<stop  offset="0.3519" style="stop-color:#A7DDF5"/>
			<stop  offset="0.6643" style="stop-color:#6DC6EC"/>
			<stop  offset="1" style="stop-color:#27AAE1"/>
		</linearGradient>
		<rect x="23.174" y="103.268" clip-path="url(#SVGID_42_)" fill="url(#SVGID_43_)" width="48.951" height="56.985"/>
	</g>
	<g>
		
			<linearGradient id="SVGID_44_" gradientUnits="userSpaceOnUse" x1="-707.2734" y1="156.3359" x2="-706.6177" y2="156.3359" gradientTransform="matrix(39.5721 -68.5409 -68.5409 -39.5721 38735.5938 -42140.5938)">
			<stop  offset="0" style="stop-color:#0082B7"/>
			<stop  offset="0.1826" style="stop-color:#0687BC"/>
			<stop  offset="0.4366" style="stop-color:#1896C8"/>
			<stop  offset="0.7309" style="stop-color:#36AFDD"/>
			<stop  offset="1" style="stop-color:#57CBF5"/>
		</linearGradient>
		<polygon fill="url(#SVGID_44_)" points="23.176,108.506 23.665,108.07 34.597,120.413 34.106,120.848 33.473,120.683 
			33.508,120.544 33.675,119.905 53.828,125.307 48.43,145.455 47.66,145.249 47.83,144.616 48.451,144.407 53.358,159.104 
			65.166,148.646 65.551,148.754 65.375,149.385 64.741,149.215 71.32,124.654 60.146,121.66 63.141,110.482 38.58,103.9 
			38.75,103.268 39.383,103.435 39.373,103.478 39.281,103.82 23.383,109.128 23.176,108.506 23.665,108.07 23.176,108.506 
			22.967,107.885 38.532,102.687 38.739,103.309 38.105,103.141 38.117,103.099 38.286,102.465 64.746,109.556 61.751,120.733 
			72.928,123.728 65.836,150.192 65.503,150.101 52.743,161.4 46.822,143.667 47.502,143.85 52.223,126.232 33.974,121.344 
			34.143,120.71 34.776,120.875 34.74,121.014 34.431,122.204 22.027,108.198 22.967,107.885 		"/>
	</g>
	<g>
		<defs>
			<polygon id="SVGID_45_" points="134.666,47.924 134.627,47.913 127.874,73.107 139.053,76.102 136.058,87.28 161.25,94.03 
				161.262,93.989 176.824,88.791 165.895,76.45 165.858,76.588 146.976,71.53 152.034,52.646 152.171,52.684 146.95,37.045 			"/>
		</defs>
		<clipPath id="SVGID_46_">
			<use xlink:href="#SVGID_45_"  overflow="visible"/>
		</clipPath>
		
			<linearGradient id="SVGID_47_" gradientUnits="userSpaceOnUse" x1="-704.9844" y1="160.1914" x2="-704.3287" y2="160.1914" gradientTransform="matrix(75.2892 43.467 -43.467 75.2892 60172.1523 18636.3438)">
			<stop  offset="0" style="stop-color:#D9F1FD"/>
			<stop  offset="0.1223" style="stop-color:#CBECFB"/>
			<stop  offset="0.3519" style="stop-color:#A7DDF5"/>
			<stop  offset="0.6643" style="stop-color:#6DC6EC"/>
			<stop  offset="1" style="stop-color:#27AAE1"/>
		</linearGradient>
		<polygon clip-path="url(#SVGID_46_)" fill="url(#SVGID_47_)" points="103.199,79.785 164.587,115.227 201.501,51.29 
			140.111,15.85 		"/>
	</g>
	<g>
		
			<linearGradient id="SVGID_48_" gradientUnits="userSpaceOnUse" x1="-707.9722" y1="156.7813" x2="-707.317" y2="156.7813" gradientTransform="matrix(39.5732 -68.5429 -68.5429 -39.5732 38905.0938 -42229.9609)">
			<stop  offset="0" style="stop-color:#0082B7"/>
			<stop  offset="0.1826" style="stop-color:#0687BC"/>
			<stop  offset="0.4366" style="stop-color:#1896C8"/>
			<stop  offset="0.7309" style="stop-color:#36AFDD"/>
			<stop  offset="1" style="stop-color:#57CBF5"/>
		</linearGradient>
		<polygon fill="url(#SVGID_48_)" points="146.95,37.045 147.571,36.836 153.182,53.637 152.497,53.45 147.778,71.065 
			166.027,75.956 165.858,76.588 165.223,76.424 165.26,76.284 165.569,75.093 177.973,89.1 161.469,94.611 161.262,93.989 
			161.894,94.16 161.884,94.201 161.713,94.833 135.254,87.743 138.251,76.566 127.071,73.572 134.164,47.104 134.499,47.197 
			147.258,35.897 147.571,36.836 146.95,37.045 147.386,37.535 134.834,48.652 134.451,48.545 134.627,47.913 135.26,48.083 
			128.678,72.644 139.856,75.639 136.86,86.816 161.421,93.397 161.25,94.03 160.617,93.859 160.628,93.818 160.719,93.479 
			175.678,88.483 165.403,76.885 165.895,76.45 166.528,76.614 166.493,76.752 166.326,77.393 146.173,71.993 151.571,51.84 
			152.343,52.05 152.171,52.684 151.551,52.891 146.328,37.252 146.95,37.045 147.386,37.535 		"/>
	</g>
	<g>
		<defs>
			<polygon id="SVGID_49_" points="91.023,18.525 90.979,18.525 90.979,83.027 35.177,50.809 35.25,50.684 18.793,51.681 
				26.123,66.361 26.1,66.398 81.961,98.649 26.158,130.868 26.087,130.742 18.723,145.493 35.1,146.485 35.121,146.523 
				90.979,114.273 90.979,178.771 91.023,178.771 100.072,192.46 109.163,178.709 109.02,178.709 109.02,114.272 164.879,146.523 
				164.901,146.485 181.278,145.493 173.916,130.742 173.843,130.868 118.04,98.649 173.899,66.398 173.878,66.362 181.21,51.681 
				164.752,50.684 164.824,50.809 109.02,83.027 109.02,18.589 109.163,18.589 100.072,4.838 			"/>
		</defs>
		<clipPath id="SVGID_50_">
			<use xlink:href="#SVGID_49_"  overflow="visible"/>
		</clipPath>
		
			<radialGradient id="SVGID_51_" cx="-706.3711" cy="160.3037" r="0.7566" gradientTransform="matrix(116.0135 0 0 -116.0135 82048.5313 18696.0039)" gradientUnits="userSpaceOnUse">
			<stop  offset="0" style="stop-color:#27AAE1"/>
			<stop  offset="0.7757" style="stop-color:#CFEDFC"/>
			<stop  offset="0.8657" style="stop-color:#C2E6F9"/>
			<stop  offset="1" style="stop-color:#A7D6F3"/>
		</radialGradient>
		<rect x="18.723" y="4.838" clip-path="url(#SVGID_50_)" fill="url(#SVGID_51_)" width="162.556" height="187.622"/>
	</g>
	<g>
		
			<linearGradient id="SVGID_52_" gradientUnits="userSpaceOnUse" x1="-708.4502" y1="159.6074" x2="-707.7947" y2="159.6074" gradientTransform="matrix(126.303 -218.763 -218.763 -126.303 124454.4531 -134653.4063)">
			<stop  offset="0" style="stop-color:#0082B7"/>
			<stop  offset="0.1826" style="stop-color:#0687BC"/>
			<stop  offset="0.4366" style="stop-color:#1896C8"/>
			<stop  offset="0.7309" style="stop-color:#36AFDD"/>
			<stop  offset="1" style="stop-color:#57CBF5"/>
		</linearGradient>
		<polygon fill="url(#SVGID_52_)" points="173.916,130.742 174.481,131.073 174.409,131.198 174.079,131.761 116.729,98.649 
			173.573,65.832 173.899,66.398 173.34,66.739 173.318,66.702 173.13,66.394 180.18,52.275 164.712,51.338 164.752,50.684 
			165.318,50.354 165.392,50.48 165.722,51.049 108.363,84.161 108.363,17.934 109.163,17.934 109.163,18.589 108.616,18.95 
			100.072,6.026 91.377,19.18 90.979,19.18 90.979,18.524 91.636,18.524 91.636,84.161 34.278,51.046 34.685,50.353 35.251,50.684 
			35.29,51.338 19.822,52.275 26.87,66.391 26.664,66.733 26.101,66.398 26.428,65.832 83.271,98.649 25.918,131.762 
			25.519,131.071 26.087,130.742 26.673,131.035 19.75,144.899 35.479,145.852 35.682,146.181 35.121,146.523 34.795,145.955 
			91.636,113.138 91.636,178.773 90.979,178.773 90.979,178.118 91.023,178.118 91.377,178.118 100.072,191.271 108.616,178.346 
			109.163,178.707 109.163,179.362 109.02,179.362 108.363,179.362 108.363,113.137 165.208,145.955 164.879,146.523 
			164.316,146.188 164.34,146.15 164.517,145.854 180.25,144.899 173.329,131.034 173.916,130.742 174.481,131.073 173.916,130.742 
			174.502,130.449 182.309,146.088 164.941,147.14 164.901,146.485 165.464,146.822 165.442,146.859 165.111,147.413 
			109.675,115.408 109.675,178.707 109.02,178.707 109.02,178.051 109.163,178.051 110.382,178.051 100.072,193.648 90.477,179.134 
			91.023,178.773 91.023,179.43 90.979,179.43 90.324,179.43 90.324,115.409 34.898,147.409 34.719,147.119 17.691,146.088 
			26.044,129.361 26.396,129.972 80.649,98.649 25.197,66.635 25.377,66.334 17.763,51.088 36.438,49.955 36.076,50.571 
			90.324,81.892 90.324,17.87 90.671,17.87 100.072,3.648 110.382,19.244 109.675,19.244 109.675,81.892 164.496,50.24 
			164.824,50.809 164.258,51.139 164.184,51.014 163.57,49.955 182.238,51.088 174.465,66.656 173.878,66.362 174.438,66.022 
			174.461,66.059 174.809,66.631 119.352,98.649 174.171,130.299 173.843,130.868 173.277,130.535 173.352,130.41 173.962,129.367 
			174.502,130.449 		"/>
	</g>
</g>
</svg>
