<?xml version="1.0" encoding="utf-8"?>
<!-- Generator: Adobe Illustrator 16.0.0, SVG Export Plug-In . SVG Version: 6.00 Build 0)  -->
<!DOCTYPE svg PUBLIC "-//W3C//DTD SVG 1.1//EN" "http://www.w3.org/Graphics/SVG/1.1/DTD/svg11.dtd">
<svg version="1.1" id="Layer_1" xmlns="http://www.w3.org/2000/svg" xmlns:xlink="http://www.w3.org/1999/xlink" x="0px" y="0px"
	 width="200px" height="200px" viewBox="0 0 200 200" enable-background="new 0 0 200 200" xml:space="preserve">
<g>
	<path fill="#CDCCCC" d="M8.585,127.215C-6.446,76.963,22.107,24.039,72.362,9.009C122.614-6.024,175.538,22.532,190.57,72.785
		c15.029,50.254-13.524,103.177-63.779,118.207C76.539,206.022,23.617,177.469,8.585,127.215"/>
	<path fill="#B2B3B4" d="M133.776,157.282C83.521,172.311,30.601,143.758,15.569,93.505c-0.954-3.194-1.732-6.401-2.341-9.605
		c-2.505,13.322-1.961,27.417,2.183,41.275c13.882,46.411,62.931,72.874,109.343,58.991c31.357-9.38,53.603-34.812,60.455-64.638
		C173.364,137.052,155.622,150.748,133.776,157.282"/>
	<path fill="#F3F3F3" d="M66.573,31.839c50.255-15.029,103.176,13.523,118.208,63.777c1.218,4.078,2.148,8.178,2.807,12.271
		c1.355-11.529,0.442-23.507-3.094-35.318C170.612,26.161,121.563-0.302,75.154,13.576c-26.2,7.838-46.041,26.882-55.857,50.334
		C30.975,49.123,47.148,37.648,66.573,31.839"/>
	<path fill="#F3F3F3" d="M168.092,57.983c-1.963,17.824-28.354,29.54-58.938,26.171c-30.59-3.372-53.799-20.552-51.833-38.374
		c1.964-17.82,28.354-29.535,58.938-26.167C146.851,22.983,170.053,40.161,168.092,57.983"/>
	<polygon fill="#808080" points="130.853,114.638 126.363,114.188 135.184,60.97 139.671,61.421 	"/>
	<polygon fill="#808080" points="92.629,127.938 46.783,97.516 49.606,94.251 95.451,124.675 	"/>
	<polygon fill="#808080" points="51.652,60.673 50.139,56.423 114.176,33.601 115.686,37.851 	"/>
	<path fill="#808080" d="M189.183,91.25c-3.922-12.474-30.737-38.652-31.006-38.915l3.149-3.234
		c1.136,1.106,27.904,27.248,32.159,40.799L189.183,91.25z"/>
	<path fill="#808080" d="M143.956,135.88l-0.24-4.507c0.351-0.018,22.053,2.628,43.599-10.521l3.006,3.363
		C168.034,138.716,144.995,135.823,143.956,135.88 M143.958,141.896l-0.123-2.253h0.003L143.958,141.896z"/>
	<path fill="#808080" d="M51.444,179.305l-0.199-5.448c19.609-1.313,37.604-17.559,37.785-17.724l2.253,4.522
		C90.517,161.36,72.166,177.921,51.444,179.305"/>
	<path fill="#808080" d="M24.437,152.676c-0.059-0.278-5.567-28.303-4.876-52.741l4.513,0.128
		c-0.679,23.92,4.73,51.459,4.789,51.731L24.437,152.676z"/>
	<path fill="#808080" d="M30.682,54.97l4.306,1.356c0.09-0.298,7.928-24.694,22.919-41.678c-3.557,1.729-6.966,3.666-10.221,5.785
		c-2.763,4.018-5.423,8.475-7.966,13.369C33.796,45.2,30.805,54.577,30.682,54.97"/>
	<path fill="#808080" d="M120.586,23.289c-0.029-0.069-0.036-0.108-0.036-0.108l4.314-1.321c-0.333-1.086-3.717-9.213-31.328-16.661
		C89.378,5.465,85.195,6.02,81.02,6.856C116.389,14.292,120.545,23.192,120.586,23.289"/>
	<path fill="#808080" d="M147.5,30.646l7.282-7.927c-1.238-0.884-2.496-1.739-3.775-2.56l-6.831,7.433L147.5,30.646z"/>
	<path fill="#808080" d="M123.729,161.083l9.811,27.521c1.499-0.674,2.977-1.392,4.431-2.141l-9.676-27.016L123.729,161.083z"/>
	
		<line fill="none" stroke="#010101" stroke-width="0" stroke-linecap="round" stroke-linejoin="round" x1="17.986" y1="78.848" x2="17.986" y2="78.848"/>
	<path fill="#808080" d="M17.986,78.848l-0.556-2.185l-0.559-2.188c-0.27,0.069-4.282,1.115-9.737,3.678
		c-0.439,1.863-0.826,3.743-1.151,5.634c6.6-3.515,11.909-4.916,12-4.939H17.986z"/>
	<path fill="#010101" d="M129.697,190.067c3.665-1.224,7.208-2.647,10.621-4.258l-5.508-1.235L129.697,190.067z"/>
	<polygon fill="#010101" points="86.759,121.486 129.609,105.458 154.144,134.244 128.628,166.299 86.759,160.411 	"/>
	<path fill="#010101" d="M53.359,100.024l6.869-44.16L34.715,45.726c0,0-20.938,25.841-21.918,33.365
		c0,0,5.561,30.092,10.142,34.019L53.359,100.024z"/>
	<path fill="#010101" d="M102.098,40.164l10.796-25.514c0,0,28.129,4.906,37.942,10.14c0,0,12.105,17.01,16.682,31.402
		l-30.092,10.141L102.098,40.164z"/>
	<path fill="#010101" d="M26.649,148.853l-7.422,1.813c11.563,18.367,28.975,31.945,48.923,38.958l-9.541-14.076
		C36.425,163.14,26.649,148.853,26.649,148.853"/>
	<path fill="#010101" d="M192.847,82.069l-4.662,1.831l-5.125,43.145l1.745,14.85C193.684,123.838,196.886,102.939,192.847,82.069"
		/>
</g>
</svg>
