<?xml version="1.0" encoding="utf-8"?>
<!-- Generator: Adobe Illustrator 16.0.0, SVG Export Plug-In . SVG Version: 6.00 Build 0)  -->
<!DOCTYPE svg PUBLIC "-//W3C//DTD SVG 1.1//EN" "http://www.w3.org/Graphics/SVG/1.1/DTD/svg11.dtd">
<svg version="1.1" id="Layer_1" xmlns="http://www.w3.org/2000/svg" xmlns:xlink="http://www.w3.org/1999/xlink" x="0px" y="0px"
	 width="200px" height="200px" viewBox="0 0 200 200" enable-background="new 0 0 200 200" xml:space="preserve">
<g>
	<polygon fill="#FDCB00" points="99.075,155.619 43.315,184.931 53.965,122.844 8.855,78.873 71.194,69.813 99.075,13.325 
		126.953,69.813 189.294,78.873 144.182,122.844 154.832,184.931 	"/>
	<path fill="#F28C00" d="M99.075,18.353l26.4,53.498l59.038,8.577l-42.718,41.64l10.083,58.798l-52.802-27.76l-52.805,27.76
		l10.085-58.798l-42.72-41.64l59.038-8.577L99.075,18.353z M99.075,8.298l-3.992,8.084l-25.365,51.4l-56.721,8.242l-8.922,1.294
		l6.454,6.295l41.046,40.009l-9.691,56.493l-1.523,8.884l7.982-4.196l50.732-26.673l50.732,26.673l7.982,4.196l-1.526-8.884
		l-9.688-56.493l41.044-40.009l6.456-6.295l-8.922-1.294l-56.721-8.242l-25.368-51.4L99.075,8.298z"/>
	<path fill="#FFEF00" d="M99.075,18.353L72.672,71.848l-59.038,8.58c0,0,85.31,53.782,170.877,0l-59.038-8.58L99.075,18.353z"/>
</g>
</svg>
