<?xml version="1.0" encoding="utf-8"?>
<!-- Generator: Adobe Illustrator 16.0.0, SVG Export Plug-In . SVG Version: 6.00 Build 0)  -->
<!DOCTYPE svg PUBLIC "-//W3C//DTD SVG 1.1//EN" "http://www.w3.org/Graphics/SVG/1.1/DTD/svg11.dtd">
<svg version="1.1" id="Layer_1" xmlns="http://www.w3.org/2000/svg" xmlns:xlink="http://www.w3.org/1999/xlink" x="0px" y="0px"
	 width="200px" height="200px" viewBox="0 0 200 200" enable-background="new 0 0 200 200" xml:space="preserve">
<g>
	<path fill="#845914" d="M182.895,8.757c-22.741-5.792-46.576-6.223-69.043-1.39C89.893,12.523,67.8,23.963,49.797,40.094
		C37.313,51.278,26.816,64.672,19.06,79.608C2.738,111.053-1.301,149.097,7.931,184.415c0.286,1.085,1.254,4.17,5.215,4.977
		c50.13,10.203,103.993-1.442,138.935-36.431c34.945-34.983,49.242-89.5,36.268-138.983C187.27,9.871,184.263,9.103,182.895,8.757"
		/>
	<path fill="#9F6920" d="M19.632,102.656c7.753-14.938,18.253-28.33,30.733-39.512c18.003-16.135,40.096-27.571,64.056-32.728
		c22.47-4.834,46.304-4.402,69.046,1.39c0.311,0.076,0.621,0.162,0.932,0.252c-0.73-5.411-1.767-10.799-3.149-16.123
		c-0.055-0.014-0.111-0.029-0.172-0.043c-21.524-5.483-44.235-5.942-65.678-1.326c-22.458,4.831-43.444,15.555-60.693,31.011
		c-1.82,1.633-3.617,3.334-5.345,5.064c-9.615,9.613-17.61,20.499-23.766,32.357c-5.237,10.094-9.138,20.933-11.667,32.159
		C15.623,110.893,17.523,106.72,19.632,102.656"/>
	<path fill="#603813" d="M152.805,108.861c-34.945,34.986-89.418,49.27-138.935,36.429c-1.193-0.308-2.45-0.677-3.396-1.462
		c-0.239,12.875,1.246,25.852,4.502,38.435c0.005,0,0.014,0.003,0.019,0.003c46.967,12.181,98.714-1.346,131.825-34.454l0.053-0.053
		c23.904-23.932,37.569-57.578,38.72-92.12C178.717,75.643,167.635,94.011,152.805,108.861"/>
	<path fill="#CBCBCB" d="M94.062,13.218c18.983,10.175,59.498,36.562,89.99,88.886c4.319-11.918,7.124-24.45,8.319-37.196
		c-20.339-29.025-43.145-48.31-60.626-60.244c-6.028,0.543-12.009,1.438-17.896,2.705C107.086,8.823,100.479,10.798,94.062,13.218"
		/>
	<path fill="#CBCBCB" d="M11.784,96.268c-4.408,12.172-7.166,25.008-8.22,38.06c11.865,17.199,30.736,39.319,58.829,59.17
		c12.844-1.07,25.479-3.783,37.511-8.033C48.371,155.276,22.12,115.392,11.784,96.268"/>
	<path fill="#CBCBCB" d="M90.978,134.577L90.978,134.577c-2.189,2.186-5.768,2.186-7.954,0l-20.941-20.944
		c-2.189-2.186-2.189-5.765,0-7.95c2.186-2.188,5.764-2.188,7.953,0l20.941,20.938C93.163,128.81,93.163,132.388,90.978,134.577"/>
	<path fill="#CBCBCB" d="M110.085,115.47L110.085,115.47c-2.189,2.186-5.767,2.186-7.956,0L81.188,94.528
		c-2.186-2.188-2.186-5.766,0-7.955c2.189-2.186,5.768-2.186,7.956,0l20.941,20.94C112.271,109.702,112.271,113.283,110.085,115.47"
		/>
	<path fill="#CBCBCB" d="M129.19,96.362L129.19,96.362c-2.186,2.187-5.765,2.187-7.954,0l-20.941-20.94
		c-2.186-2.188-2.186-5.767,0-7.955c2.188-2.188,5.767-2.188,7.956,0l20.938,20.941C131.378,90.596,131.378,94.174,129.19,96.362"/>
	<path fill="#CBCBCB" d="M60.302,137.019L60.302,137.019c-2.188-2.189-2.188-5.771,0-7.956l63.509-63.511
		c2.188-2.185,5.767-2.185,7.953,0c2.186,2.188,2.186,5.767,0,7.955l-63.509,63.512C66.066,139.204,62.488,139.204,60.302,137.019"
		/>
	<path fill="#989898" d="M10.524,143.864c10.22,13.271,24.162,28.379,42.618,42.759c13.121-0.299,26.129-2.401,38.548-6.196
		c-15.199-9.704-27.996-20.185-38.67-30.526c-13.099,0.214-26.292-1.275-39.15-4.61C12.694,144.988,11.462,144.619,10.524,143.864"
		/>
	<path fill="#989898" d="M185.575,55.686c-3.398,9.877-7.825,19.353-13.218,28.207c2.267,3.216,4.502,6.564,6.697,10.025
		c3.878-12.295,6.097-25.188,6.539-38.212C185.586,55.697,185.581,55.691,185.575,55.686"/>
	<path fill="#E5E5E5" d="M115.4,14.565c-4.361,0.938-8.661,2.105-12.894,3.477c4.985,3.02,10.716,6.792,16.921,11.396
		c13.404-2.399,27.225-2.947,40.951-1.635c-6.636-6.278-13.113-11.693-19.191-16.32C132.494,11.73,123.847,12.747,115.4,14.565"/>
	<path fill="#E5E5E5" d="M16.702,104.806c-1.051,3.406-1.989,6.857-2.777,10.353c1.168-2.94,2.444-5.833,3.809-8.68
		C17.379,105.91,17.038,105.355,16.702,104.806"/>
</g>
</svg>
