<?xml version="1.0" encoding="utf-8"?>
<!-- Generator: Adobe Illustrator 16.0.0, SVG Export Plug-In . SVG Version: 6.00 Build 0)  -->
<!DOCTYPE svg PUBLIC "-//W3C//DTD SVG 1.1//EN" "http://www.w3.org/Graphics/SVG/1.1/DTD/svg11.dtd">
<svg version="1.1" id="Layer_1" xmlns="http://www.w3.org/2000/svg" xmlns:xlink="http://www.w3.org/1999/xlink" x="0px" y="0px"
	 width="200px" height="200px" viewBox="0 0 200 200" enable-background="new 0 0 200 200" xml:space="preserve">
<g>
	<path fill="#8CC53F" d="M9.007,127.216C-6.022,76.963,22.531,24.039,72.786,9.006c50.252-15.031,103.173,13.522,118.205,63.778
		c15.032,50.252-13.521,103.176-63.773,118.209C76.963,206.024,24.039,177.468,9.007,127.216"/>
	<path fill="#C5E120" d="M162.596,164.277c-35.501,34.571-92.303,33.816-126.874-1.682C1.15,127.095,1.903,70.292,37.405,35.723
		c35.501-34.571,92.3-33.817,126.871,1.683C198.848,72.903,198.096,129.707,162.596,164.277"/>
	<path fill="#A9CD28" d="M132.309,154.111c-47.475,14.199-97.472-12.774-111.668-60.247c-0.904-3.018-1.641-6.047-2.215-9.074
		c-2.367,12.587-1.853,25.9,2.063,38.993c13.113,43.842,59.45,68.842,103.294,55.729c29.622-8.86,50.638-32.89,57.112-61.066
		C169.706,135.002,152.944,147.941,132.309,154.111"/>
	<path fill="#E5E5E5" d="M79.557,153.709c-2.922-0.927-5.791-2.002-8.595-3.217c-0.598,0.646-1.181,1.308-1.755,1.985
		c-4.516,5.315-8.299,11.855-7.926,18.819c0.043,0.747,0.145,1.479,0.276,2.203c3.674,1.92,7.485,3.571,11.412,4.931
		c-1.864-4.075-2.421-8.723-1.166-13.04C73.137,160.808,76.055,157.021,79.557,153.709"/>
	<path fill="#D4E71F" d="M167.25,65.798c0,25.109-25.974,45.464-58.014,45.464c-32.044,0-58.018-20.355-58.018-45.464
		s25.974-45.463,58.018-45.463C141.276,20.334,167.25,40.689,167.25,65.798"/>
	<path fill="#F1F1F1" d="M78.839,18.777C55.407,25.216,34.131,39.81,19.902,59.526c-1.347,2.671-2.554,5.395-3.619,8.162
		c9.592-12.306,20.683-23.487,33.85-31.776c15.886-9.995,35.051-15.538,53.622-12.832c20.495,2.989,37.757,13.514,43.298,33.756
		c8.937,32.645-20.349,56.483-44.191,70.32c-12.202,7.083-24.525,14.56-33.654,25.32c-4.513,5.315-8.299,11.852-7.926,18.819
		c0.232,4.325,2.046,8.266,4.674,11.731c5.059,2.07,10.27,3.664,15.561,4.773c-7.652-4.177-12.18-13.931-9.712-22.41
		c2.209-7.592,8.759-13.011,15.136-17.685c20.869-15.283,45.88-25.329,61.51-46.472c12.217-16.523,16.764-36.915,7.411-55.947
		C141.905,16.893,106.604,11.151,78.839,18.777"/>
</g>
</svg>
