<?xml version="1.0" encoding="utf-8"?>
<!-- Generator: Adobe Illustrator 16.0.0, SVG Export Plug-In . SVG Version: 6.00 Build 0)  -->
<!DOCTYPE svg PUBLIC "-//W3C//DTD SVG 1.1//EN" "http://www.w3.org/Graphics/SVG/1.1/DTD/svg11.dtd">
<svg version="1.1" id="Layer_1" xmlns="http://www.w3.org/2000/svg" xmlns:xlink="http://www.w3.org/1999/xlink" x="0px" y="0px"
	 width="200px" height="200px" viewBox="0 0 200 200" enable-background="new 0 0 200 200" xml:space="preserve">
<g>
	<path fill="#989898" d="M10.291,126.864C-4.739,76.611,23.812,23.688,74.068,8.655c50.253-15.029,103.176,13.521,118.206,63.777
		c15.033,50.253-13.521,103.176-63.774,118.209C78.244,205.671,25.321,177.117,10.291,126.864"/>
	<path fill="#DADADA" d="M15.328,125.358C1.127,77.884,28.099,27.893,75.571,13.688c47.475-14.197,97.47,12.774,111.67,60.25
		c14.197,47.472-12.774,97.467-60.246,111.663C79.52,199.806,29.524,172.831,15.328,125.358"/>
	<path fill="#B2B2B2" d="M133.591,153.76c-47.475,14.197-97.47-12.774-111.667-60.243c-0.903-3.021-1.64-6.051-2.214-9.078
		c-2.37,12.583-1.853,25.9,2.064,38.99c13.113,43.846,59.449,68.843,103.291,55.73c29.623-8.861,50.636-32.889,57.114-61.063
		C170.986,134.65,154.225,147.588,133.591,153.76"/>
	<path fill="#F1F1F1" d="M64.365,56.306c0-17.636,20.539-31.932,45.871-31.932c25.333,0,45.868,14.296,45.868,31.932
		c0,17.639-20.535,31.935-45.868,31.935C84.904,88.24,64.365,73.944,64.365,56.306"/>
	<path fill="#C0272D" d="M91.222,112.871C75.223,89.484,50.395,72.35,33.467,72.937c-7.828,0.281-14.277,2.718-19.563,6.277
		c-0.587,2.501-1.062,5.033-1.432,7.592c5.298-4.855,12.21-8.469,21.176-8.798c16.854-0.641,40.362,18.701,53.382,37.731
		c9.639,14.088,22.813,40.568,16.261,73.623c1.742-0.041,3.486-0.131,5.234-0.274C114.871,154.873,101.238,127.505,91.222,112.871"
		/>
	<path fill="#F1F1F1" d="M69.396,37.391c47.475-14.2,97.467,12.771,111.667,60.243c1.155,3.856,2.028,7.729,2.65,11.595
		c1.279-10.89,0.418-22.206-2.921-33.364C167.679,32.022,121.342,7.025,77.5,20.135c-24.752,7.406-43.491,25.396-52.764,47.552
		C35.767,53.716,51.045,42.877,69.396,37.391"/>
	<path fill="#C0272D" d="M95.366,10.106c-2.329,0.156-4.66,0.405-6.995,0.746c11.282,9.566,25.878,21.767,41.284,34.203
		c24.959,20.14,45.319,35.511,60.948,46.027c-0.217-2.256-0.523-4.514-0.915-6.772C160.208,63.971,120.819,31.586,95.366,10.106"/>
	<path fill="#C0272D" d="M55.906,96.646c-1.056,0-2.041-0.664-2.398-1.713c-0.459-1.333,0.246-2.775,1.576-3.229l9.795-3.361V75.476
		c0-1.406,1.142-2.545,2.542-2.545c1.4,0,2.539,1.139,2.539,2.545v16.497l-13.23,4.535C56.458,96.598,56.178,96.646,55.906,96.646"
		/>
	<path fill="#C0272D" d="M29.496,87.328c-0.657,0-1.317-0.255-1.815-0.759c-0.982-1.002-0.966-2.609,0.032-3.592l8.277-8.134
		l-4.111-10.251c-0.523-1.305,0.111-2.781,1.41-3.305c1.305-0.52,2.785,0.115,3.304,1.413l5.368,13.399l-10.685,10.5
		C30.781,87.086,30.137,87.328,29.496,87.328"/>
	<path fill="#C0272D" d="M93.563,120.819H78.936c-1.406,0-2.542-1.139-2.542-2.545c0-1.396,1.136-2.535,2.542-2.535h11.104
		l4.127-11.043c0.488-1.312,1.952-1.975,3.266-1.49c1.311,0.492,1.978,1.952,1.486,3.27L93.563,120.819z"/>
	<path fill="#C0272D" d="M106.899,153.463l-16.398-4.14c-1.359-0.349-2.185-1.727-1.837-3.088c0.338-1.359,1.719-2.182,3.084-1.838
		l12.858,3.247l6.392-9.919c0.763-1.181,2.335-1.519,3.512-0.76c1.177,0.76,1.518,2.332,0.759,3.509L106.899,153.463z"/>
	<path fill="#C0272D" d="M107.917,180.077l-12.318-4.925c-1.301-0.522-1.936-1.996-1.413-3.301c0.52-1.305,1.997-1.937,3.298-1.413
		l9.693,3.875l8.516-6.273c1.126-0.833,2.718-0.594,3.55,0.539c0.829,1.129,0.59,2.717-0.539,3.55L107.917,180.077z"/>
	<path fill="#C0272D" d="M110.931,41.324c-1.139,0-2.178-0.775-2.462-1.934c-0.335-1.361,0.498-2.739,1.86-3.074l9.738-2.396
		l1.742-9.806c0.246-1.378,1.576-2.296,2.947-2.054c1.381,0.245,2.3,1.563,2.054,2.944l-2.319,13.055l-12.95,3.19
		C111.336,41.302,111.136,41.324,110.931,41.324"/>
	<path fill="#C0272D" d="M134.72,60.88c-1.164,0-2.21-0.804-2.475-1.984c-0.306-1.365,0.552-2.724,1.923-3.033l9.891-2.22V43.101
		c0-1.403,1.136-2.539,2.539-2.539s2.539,1.136,2.539,2.539v14.608l-13.859,3.106C135.093,60.86,134.901,60.88,134.72,60.88"/>
	<path fill="#C0272D" d="M160.881,81.198c-1.049,0-2.029-0.654-2.395-1.7c-0.466-1.324,0.229-2.772,1.556-3.237l9.218-3.241v-9.601
		c0-1.404,1.139-2.539,2.542-2.539c1.4,0,2.539,1.135,2.539,2.539v13.202l-12.618,4.43C161.446,81.15,161.159,81.198,160.881,81.198
		"/>
	<path fill="#C0272D" d="M99.886,9.918c-0.144,0.274-0.243,0.574-0.281,0.903l-0.667,5.983l-7.148,2.29
		c-1.336,0.428-2.073,1.856-1.646,3.193c0.344,1.074,1.346,1.767,2.421,1.767c0.252,0,0.513-0.041,0.771-0.121l10.29-3.301
		l1.024-9.25c0.061-0.511-0.042-0.995-0.258-1.426C102.9,9.909,101.391,9.89,99.886,9.918"/>
</g>
</svg>
