<?xml version="1.0" encoding="utf-8"?>
<!-- Generator: Adobe Illustrator 16.0.0, SVG Export Plug-In . SVG Version: 6.00 Build 0)  -->
<!DOCTYPE svg PUBLIC "-//W3C//DTD SVG 1.1//EN" "http://www.w3.org/Graphics/SVG/1.1/DTD/svg11.dtd">
<svg version="1.1" id="Layer_1" xmlns="http://www.w3.org/2000/svg" xmlns:xlink="http://www.w3.org/1999/xlink" x="0px" y="0px"
	 width="200px" height="200px" viewBox="0 0 200 200" enable-background="new 0 0 200 200" xml:space="preserve">
<g>
	<path fill="#E10D8C" d="M9.198,127.216C-5.833,76.961,22.718,24.038,72.974,9.007c50.252-15.031,103.174,13.524,118.208,63.776
		c15.031,50.255-13.523,103.18-63.777,118.208C77.151,206.024,24.229,177.471,9.198,127.216"/>
	<path fill="#DC4F9B" d="M166.884,56.495c-1.955,17.762-28.255,29.44-58.741,26.081c-30.485-3.358-53.61-20.479-51.655-38.242
		c1.956-17.762,28.257-29.44,58.74-26.081C145.715,21.612,168.841,38.733,166.884,56.495"/>
	<path fill="#B31E7B" d="M134.39,157.281C84.134,172.312,31.21,143.76,16.18,93.505c-0.953-3.195-1.731-6.4-2.343-9.607
		c-2.506,13.324-1.962,27.418,2.185,41.277c13.883,46.409,62.932,72.875,109.343,58.993c31.355-9.378,53.602-34.815,60.455-64.642
		C173.975,137.048,156.234,150.745,134.39,157.281"/>
	<path fill="#DC4F9B" d="M66.433,34.095c50.255-15.031,103.18,13.522,118.207,63.776c1.22,4.08,2.148,8.176,2.808,12.273
		c1.354-11.532,0.441-23.508-3.093-35.318c-13.881-46.412-62.93-72.874-109.339-58.995c-26.202,7.838-46.043,26.883-55.86,50.334
		C30.834,51.377,47.009,39.905,66.433,34.095"/>
	<path fill="#AAC7E8" d="M195.161,97.946c-0.187-8.335-1.474-16.785-3.979-25.162c-4.173-13.951-11.267-26.223-20.411-36.36
		c1.112,1.237-6.097,11.711-7.062,13.169c-2.922,4.41-6.186,8.585-9.711,12.528c-6.949,7.782-14.894,14.643-23.351,20.737
		c-22.567,16.251-48.755,29.411-75.331,37.607c-8.12,2.505-16.5,4.443-25.011,4.86c-4.38,0.212-8.791,0.017-13.111-0.744
		c-1.91-0.336-9.089-1.197-9.662-3.733c0.481,2.126,1.031,4.248,1.665,6.367c5.609,18.758,16.501,34.491,30.562,46.062
		c1.189,0.98,6.561-0.01,8.241-0.055c33.947-0.853,66.864-11.342,95.549-29.67c10.183-6.502,19.707-14.007,28.683-22.085
		c4.497-4.043,8.856-8.236,13.101-12.542C187.387,106.842,195.228,101.051,195.161,97.946"/>
	<path fill="#8098CD" d="M16.022,125.175c6.145,20.543,19.179,37.17,35.825,48.13c21.11-0.58,40.379-5.166,57.649-12.053
		c-29.973,0.751-58.504-12.839-76.871-36.08c-7.194,0.632-12.698,0.098-16.864-0.919C15.85,124.56,15.929,124.868,16.022,125.175"/>
	<path fill="#CCE2F4" d="M184.355,74.825c-3.545-11.861-9.395-22.412-16.906-31.327c-2.131,3.997-4.864,8.275-8.345,12.752
		c11.627,11.035,20.615,25.164,25.536,41.621c0.917,3.066,1.667,6.146,2.266,9.222c0.307-0.324,0.614-0.648,0.916-0.973
		C188.555,95.841,187.482,85.267,184.355,74.825"/>
	<path fill="#CCE2F4" d="M166.884,56.495c0.357-3.259-0.134-6.497-1.354-9.632c-0.864,1.316-1.563,2.346-1.82,2.731
		c-2.922,4.41-6.186,8.585-9.711,12.528c-6.689,7.491-14.307,14.123-22.411,20.042C151.083,79.154,165.458,69.447,166.884,56.495"/>
</g>
</svg>
