<svg xmlns="http://www.w3.org/2000/svg" xmlns:xlink="http://www.w3.org/1999/xlink" width="100%" height="100%" viewBox="0 0 1194 595"><defs><style>.a,.i,.o{fill:none;}.b{fill:#f8f8f8;}.c{fill:#e9e9e9;}.d{fill:#dfdfdf;}.e{clip-path:url(#a);}.f,.h,.j,.k,.l{fill:#707070;}.f,.j,.l{font-size:11px;}.f,.l{font-family:Roboto-Regular, Roboto;}.g{clip-path:url(#b);}.h{font-size:16px;font-family:Roboto-Black, Roboto;font-weight:800;}.i{stroke:#707070;}.j{font-family:Roboto-ThinItalic, Roboto;font-weight:200;font-style:italic;}.k{font-size:18px;}.k,.n,.s{font-family:Roboto-Bold, Roboto;}.k,.n,.p,.s{font-weight:700;}.k,.s{letter-spacing:0.137em;}.l{letter-spacing:0.241em;}.m,.p{fill:#7b7b7b;}.n{fill:#fff;}.n,.p{font-size:8px;}.o{stroke:#7b7b7b;stroke-width:3px;}.p{font-family:OpenSans-Bold, Open Sans;letter-spacing:0.183em;}.q{clip-path:url(#c);}.r{fill:#ececec;}.s{fill:#cfcfcf;font-size:12px;}.t{stroke:none;}</style><clipPath id="a"><rect class="a" width="581" height="124"/></clipPath><clipPath id="b"><rect class="a" width="287" height="62"/></clipPath><clipPath id="c"><rect class="a" width="623" height="52"/></clipPath></defs><g transform="translate(-374 -499)"><rect class="b" width="775" height="595" transform="translate(374 499)"/><rect class="c" width="775" height="287" transform="translate(374 499)"/><rect class="b" width="360" height="595" transform="translate(1208 499)"/><rect class="c" width="360" height="517" transform="translate(1208 499)"/><rect class="d" width="775" height="23" transform="translate(374 499)"/><rect class="d" width="360" height="23" transform="translate(1208 499)"/><rect class="d" width="281" height="189" transform="translate(471 560)"/><rect class="d" width="281" height="189" transform="translate(1248 779)"/><g class="e" transform="translate(471 822)"><g transform="translate(-588 -8171)"><rect class="d" width="131" height="96" transform="translate(588 8171)"/><text class="f" transform="translate(643 8283)"><tspan x="0" y="0">Title</tspan></text></g><g transform="translate(-438 -8171)"><rect class="d" width="131" height="96" transform="translate(588 8171)"/><text class="f" transform="translate(643 8283)"><tspan x="0" y="0">Title</tspan></text></g><g transform="translate(-288 -8171)"><rect class="d" width="131" height="96" transform="translate(588 8171)"/><text class="f" transform="translate(643 8283)"><tspan x="0" y="0">Title</tspan></text></g><g transform="translate(-138 -8171)"><rect class="d" width="131" height="96" transform="translate(588 8171)"/><text class="f" transform="translate(643 8283)"><tspan x="0" y="0">Title</tspan></text></g></g><g class="g" transform="translate(1248 1032)"><g transform="translate(-588 -8171)"><rect class="d" width="131" height="96" transform="translate(588 8171)"/><text class="f" transform="translate(643 8283)"><tspan x="0" y="0">Title</tspan></text></g><g transform="translate(-438 -8171)"><rect class="d" width="131" height="96" transform="translate(588 8171)"/><text class="f" transform="translate(643 8283)"><tspan x="0" y="0">Title</tspan></text></g></g><text class="h" transform="translate(558 660)"><tspan x="0" y="0">Product Image</tspan></text><text class="h" transform="translate(1335 879)"><tspan x="0" y="0">Product Image</tspan></text><line class="i" x2="775" transform="translate(374.5 897.5)"/><text class="j" transform="translate(395 890)"><tspan x="0" y="0">Fold</tspan></text><text class="j" transform="translate(1094 890)"><tspan x="0" y="0">Fold</tspan></text><text class="k" transform="translate(795 609)"><tspan x="0" y="0">HEADLINE</tspan></text><text class="k" transform="translate(1388 590)"><tspan x="-50.871" y="0">HEADLINE</tspan></text><text class="l" transform="translate(795 623)"><tspan x="0" y="10">LOREM IPSUM DOLOR SIT AMET, </tspan><tspan x="0" y="27">CONSETETUR SADIPSCING ELITR, SED</tspan></text><text class="l" transform="translate(1250 604)"><tspan x="23.073" y="10">LOREM IPSUM DOLOR SIT AMET, </tspan><tspan x="1.728" y="27">CONSETETUR SADIPSCING ELITR, SED</tspan></text><g transform="translate(795 668.384)"><path class="m" d="M0,0H149.62V32.125H0Z" transform="translate(0 0)"/><text class="n" transform="translate(74.68 18.637)"><tspan x="-32.236" y="0">COLLECTION CTA</tspan></text></g><g transform="translate(1246.619 658.384)"><path class="m" d="M0,0H282.38V32.125H0Z" transform="translate(0 0)"/><text class="n" transform="translate(140.859 18.637)"><tspan x="-32.236" y="0">COLLECTION CTA</tspan></text></g><g transform="translate(958.836 668.384)"><g class="o" transform="translate(0 0)"><rect class="t" width="86.655" height="32.125"/><rect class="a" x="1.5" y="1.5" width="83.655" height="29.125"/></g><g transform="translate(17.753 7.067)"><text class="p" transform="translate(27 11.57)"><tspan x="-26.829" y="0">VIDEO CTA</tspan></text></g></g><g transform="translate(1247.326 699.384)"><g class="o" transform="translate(0 0)"><rect class="t" width="281.674" height="32.125"/><rect class="a" x="1.5" y="1.5" width="278.674" height="29.125"/></g><g transform="translate(113.771 10.637)"><text class="p" transform="translate(27 9)"><tspan x="-26.829" y="0">VIDEO CTA</tspan></text></g></g><g class="q" transform="translate(451 990)"><g transform="translate(-610 -8336)"><rect class="r" width="108" height="34" transform="translate(610 8336)"/><text class="s" transform="translate(664 8356)"><tspan x="-15.925" y="0">Logo</tspan></text></g><g transform="translate(-482 -8336)"><rect class="r" width="108" height="34" transform="translate(610 8336)"/><text class="s" transform="translate(664 8356)"><tspan x="-15.925" y="0">Logo</tspan></text></g><g transform="translate(-354 -8336)"><rect class="r" width="108" height="34" transform="translate(610 8336)"/><text class="s" transform="translate(664 8356)"><tspan x="-15.925" y="0">Logo</tspan></text></g><g transform="translate(-226 -8336)"><rect class="r" width="108" height="34" transform="translate(610 8336)"/><text class="s" transform="translate(664 8356)"><tspan x="-15.925" y="0">Logo</tspan></text></g><g transform="translate(-98 -8336)"><rect class="r" width="108" height="34" transform="translate(610 8336)"/><text class="s" transform="translate(664 8356)"><tspan x="-15.925" y="0">Logo</tspan></text></g></g></g></svg>