<svg xmlns="http://www.w3.org/2000/svg" width="100%" height="100%" viewBox="0 0 33.535 34.481">
  <path id="icon_ideation" d="M590.787,295.6h-.333a.815.815,0,0,0-.793.836v.054a.915.915,0,0,1-.891.939h-4.22a.916.916,0,0,1-.891-.939v-.054a.815.815,0,0,0-.793-.836h-.332l.062-2.9h8.253Zm5.164-16.765a9.028,9.028,0,0,1-2.962,6.7,6.04,6.04,0,0,0-2.027,4.453V291.8h-8.308V289.83a5.849,5.849,0,0,0-1.88-4.316,9.057,9.057,0,1,1,15.177-6.676Zm-8.292-6.831a.766.766,0,0,0-.766-.765,7.756,7.756,0,0,0-7.748,7.748.766.766,0,0,0,1.531,0,6.224,6.224,0,0,1,6.217-6.217A.765.765,0,0,0,587.659,272.007Zm0-4.97v-3.321a.766.766,0,0,0-1.531,0v3.321a.766.766,0,0,0,1.531,0Zm8.721,4.309L598.727,269a.765.765,0,1,0-1.083-1.082l-2.348,2.348a.765.765,0,0,0,1.083,1.082Zm7.206,8.448a.765.765,0,0,0-.765-.765H599.5a.766.766,0,1,0,0,1.531h3.321A.766.766,0,0,0,603.585,279.794Zm-4.965,11.835a.766.766,0,0,0,0-1.083l-2.348-2.348a.766.766,0,0,0-1.083,1.083l2.349,2.348a.765.765,0,0,0,1.082,0Zm-22.631-.107,2.348-2.348a.765.765,0,0,0-1.082-1.083l-2.348,2.349a.765.765,0,1,0,1.082,1.082ZM574.9,279.643a.765.765,0,0,0-.765-.765h-3.321a.765.765,0,1,0,0,1.53h3.321A.765.765,0,0,0,574.9,279.643Zm3.543-8.4a.766.766,0,0,0,0-1.083l-2.348-2.348a.765.765,0,1,0-1.083,1.082l2.349,2.349a.765.765,0,0,0,1.082,0Z" transform="translate(-570.05 -262.951)" fill="#ff9c39"/>
</svg>
