<?xml version="1.0" encoding="utf-8"?>
<!-- Generator: Adobe Illustrator 16.0.0, SVG Export Plug-In . SVG Version: 6.00 Build 0)  -->
<!DOCTYPE svg PUBLIC "-//W3C//DTD SVG 1.1//EN" "http://www.w3.org/Graphics/SVG/1.1/DTD/svg11.dtd">
<svg version="1.1" id="Layer_1" xmlns="http://www.w3.org/2000/svg" xmlns:xlink="http://www.w3.org/1999/xlink" x="0px" y="0px"
	 width="1500px" height="938px" viewBox="0 0 1500 938" enable-background="new 0 0 1500 938" xml:space="preserve">
<path fill-rule="evenodd" clip-rule="evenodd" fill="#272360" d="M1153.568-17.287c-13.296,8.607-27.684,15.144-41.977,21.799
	c-61.772,28.764-126.445,47.82-193.883,57.583c-61.754,8.939-123.593,17.246-185.48,25.193c-9.652,1.239-19.273,2.733-28.941,3.839
	c-8.177,0.936-15.569-2.806-23.2-4.732c-39.111-9.872-78.084-20.27-117.404-29.321c-25.698-5.916-51.173-12.796-76.869-18.723
	C429.934,25.461,374.07,12.504,317.94,0.699c-26.743-5.625-53.483-11.31-80.182-17.163c-0.703-0.154-1.353-0.543-2.028-0.823
	C541.677-17.287,847.621-17.287,1153.568-17.287z"/>
<path fill-rule="evenodd" clip-rule="evenodd" fill="#F15B27" d="M-75-34.638c17.174,0.437,34.352,0.583,51.528,1.063
	c46.68,1.304,93.116,4.941,139.368,11.431c66.797,9.374,132.256,24.369,196.033,46.331c63.81,21.974,123.86,51.309,177.481,92.841
	c2.181,1.688,4.343,3.402,6.481,5.142c1.099,0.894,3.04,1.573,2.406,3.28c-0.542,1.453-2.445,1.434-3.921,1.629
	c-22.685,3.01-45.386,5.916-68.053,9.058c-41.14,5.703-82.28,11.413-123.384,17.365c-44.255,6.409-88.514,12.821-132.693,19.739
	c-47.747,7.476-95.431,15.366-143.087,23.403c-31.566,5.324-63.031,11.249-94.556,16.825c-2.478,0.438-5.067,0.25-7.604,0.354
	C-75,131.003-75,48.183-75-34.638z"/>
<path fill-rule="evenodd" clip-rule="evenodd" fill="#F79527" d="M1521.938-6.999c0.003-3.853-0.868-4.724-4.721-4.721
	c-137.181,0.115-274.36,0.097-411.541,0.097c-11.907,7.709-24.794,13.563-37.596,19.524c-55.326,25.762-113.25,42.83-173.65,51.574
	c-55.309,8.007-110.694,15.446-166.124,22.564c-8.645,1.11-17.263,2.448-25.921,3.439c-7.323,0.838-13.944-2.513-20.78-4.239
	c-35.028-8.842-69.935-18.154-105.151-26.261c-23.016-5.298-45.833-11.461-68.847-16.77C457.559,26.665,407.525,15.06,357.252,4.486
	c-23.952-5.037-47.901-10.13-71.814-15.372c-0.629-0.138-1.212-0.487-1.816-0.737c-4.624,0-9.248,0-13.872,0
	c-94.879,0-189.758-0.007-284.637,0.064c-1.504,0.001-3.484-1.185-4.624,0.964c13.85,0.353,27.703,0.471,41.556,0.857
	C59.69-8.686,97.139-5.752,134.439-0.519c53.87,7.56,106.66,19.652,158.094,37.364c51.46,17.722,99.888,41.379,143.132,74.873
	c1.759,1.362,3.502,2.744,5.227,4.147c0.886,0.721,2.452,1.269,1.94,2.646c-0.437,1.171-1.972,1.156-3.162,1.313
	c-18.294,2.428-36.602,4.771-54.882,7.305c-33.177,4.599-66.355,9.205-99.504,14.005c-35.691,5.168-71.384,10.34-107.012,15.918
	c-38.506,6.029-76.961,12.392-115.395,18.875C37.42,180.221,12.044,185-13.379,189.496c-1.999,0.354-4.086,0.202-6.132,0.285
	c0,44.219,0,88.438,0,132.657c0,142.113,0,284.227,0,426.34v203.557h1537.243V520.722c1.37-0.021,2.741-0.037,4.11-0.063
	C1521.842,344.773,1521.828,168.887,1521.938-6.999z"/>
<path fill-rule="evenodd" clip-rule="evenodd" fill="#F15B27" d="M1521.842,582.313c0,103.099,0,206.199,0,309.298
	c-1.501-0.341-2.997-0.708-4.504-1.021c-42.038-8.713-84.207-16.75-126.474-24.261c-44.786-7.958-89.664-15.347-134.657-22.055
	c-37.881-5.648-75.816-10.872-113.813-15.687c-37.658-4.771-75.368-9.066-113.136-12.804c-28.924-2.862-57.91-5.11-86.874-7.542
	c-39.375-3.307-78.822-5.398-118.288-7.289c-13.655-0.654-27.351,0.013-40.963-1.493c-13.479-0.932-27.009-0.787-40.493-1.056
	c-37.789-0.754-75.585-0.158-113.375,1.53c-24.237,1.082-48.439,2.379-72.632,4.185c-21.299,1.588-42.539,3.721-63.68,6.57
	c-45.385,6.119-90.228,15.678-135.603,21.91c-23.518,3.23-47.021,6.56-70.552,9.695c-18.108,2.413-36.235,4.69-54.375,6.848
	c-16.445,1.954-32.913,3.729-49.383,5.465c-17.827,1.876-35.663,3.668-53.505,5.397c-17.499,1.696-35.005,3.326-52.518,4.875
	c-13.606,1.204-27.227,2.227-40.84,3.35c-18.545,1.53-37.061,3.501-55.687,3.857c0-15.413,0-30.827,0-46.24
	c1.489-0.353,3.017-0.591,4.461-1.075c123.102-41.288,248.155-75.602,374.653-104.74c77.211-17.786,154.826-33.598,232.819-47.562
	c47.488-8.504,95.044-16.579,142.776-23.582c37.23-5.462,74.462-10.934,111.76-15.906c32.209-4.293,64.511-7.886,96.771-11.791
	c13.225-1.602,26.448-3.212,39.674-4.818c19.996,0,39.991,0,60.371,0c-0.859-2.629-1.43-4.371-2.001-6.116
	c13.198-0.271,26.254-2.249,39.389-3.283c-0.313,3.21-3.241,5.559-3.117,9.189c1.355,0,2.541,0,3.726,0
	c27.46,0,54.919-0.023,82.378,0.046c2.217,0.006,3.328-0.784,4.235-2.749c2.279-4.936,4.796-9.763,7.216-14.633
	c5.629-0.336,11.258-0.646,16.885-1.011c36.157-2.343,72.295-5.061,108.476-6.959c46.774-2.455,93.577-4.417,140.38-6.282
	C1468.16,583.505,1495.007,583.046,1521.842,582.313z"/>
<path fill-rule="evenodd" clip-rule="evenodd" fill="#FCB456" d="M783.132,799.462c13.613,1.504,27.309,0.837,40.964,1.491
	c39.466,1.891,78.913,3.982,118.288,7.289c28.964,2.432,57.95,4.68,86.874,7.542c37.768,3.737,75.478,8.033,113.136,12.804
	c37.997,4.814,75.933,10.038,113.813,15.687c44.993,6.708,89.871,14.097,134.657,22.055c42.267,7.511,84.436,15.548,126.474,24.261
	c1.507,0.313,3.003,0.68,4.504,1.021c0,18.839-0.118,37.679,0.105,56.516c0.042,3.526-0.697,4.212-4.216,4.209
	c-157.39-0.112-314.778-0.098-472.167-0.098c-21.065,0-42.131,0-63.196,0c-1.277-1.122-2.497-2.318-3.841-3.354
	c-18.393-14.18-36.751-28.403-55.218-42.482c-21.312-16.25-42.721-32.369-64.088-48.544c-17.213-13.096-34.478-26.125-51.618-39.315
	C799.407,812.234,790.58,806.728,783.132,799.462z"/>
<path fill-rule="evenodd" clip-rule="evenodd" fill="#272360" d="M859.222,857.857c21.367,16.175,42.776,32.294,64.088,48.544
	c18.467,14.079,36.825,28.303,55.218,42.482c1.344,1.035,2.563,2.231,3.841,3.354c-332.418,0-664.837-0.008-997.255,0.096
	c-3.853,0.002-5.043-0.837-4.715-4.728c0.387-4.591,0.091-9.24,0.091-13.864c22.188-1.456,44.393-2.706,66.562-4.418
	c31.713-2.448,63.42-5.022,95.094-7.931c35.925-3.301,71.846-6.703,107.702-10.664c35.676-3.943,71.292-8.468,106.895-13.046
	c37.458-4.816,74.858-10.166,112.016-16.903c45.27-8.208,90.691-15.142,136.559-18.828c49.993-4.018,100.088-5.64,150.236-5.761
	C790.118,856.108,824.667,857.161,859.222,857.857z"/>
<path fill-rule="evenodd" clip-rule="evenodd" fill="#F27047" d="M859.222,857.857c-34.555-0.696-69.104-1.749-103.671-1.667
	c-50.147,0.121-100.243,1.743-150.236,5.761c-45.867,3.687-91.289,10.62-136.559,18.828c-37.158,6.737-74.558,12.087-112.016,16.903
	c-35.603,4.578-71.218,9.103-106.895,13.046c-35.856,3.961-71.777,7.363-107.702,10.664c-31.674,2.908-63.38,5.482-95.094,7.931
	c-22.169,1.712-44.373,2.962-66.562,4.418c0-20.552,0-41.103,0-61.654c18.626-0.356,37.142-2.327,55.687-3.857
	c13.613-1.123,27.234-2.146,40.84-3.35c17.513-1.549,35.019-3.179,52.518-4.875c17.842-1.729,35.679-3.521,53.505-5.397
	c16.47-1.735,32.938-3.511,49.383-5.465c18.14-2.157,36.268-4.435,54.375-6.848c23.531-3.136,47.035-6.465,70.552-9.695
	c45.375-6.232,90.218-15.791,135.603-21.91c21.142-2.85,42.381-4.982,63.68-6.57c24.193-1.806,48.395-3.103,72.632-4.185
	c37.789-1.688,75.585-2.284,113.375-1.53c13.484,0.269,27.014,0.124,40.493,1.056c7.447,7.268,16.274,12.774,24.471,19.082
	C824.744,831.732,842.009,844.762,859.222,857.857z"/>
<path fill-rule="evenodd" clip-rule="evenodd" fill="#F79527" d="M829.699,567.872c12.695-26.854,25.384-53.709,38.089-80.558
	c4.014-8.479,8.069-16.938,12.169-25.541c0.543,0.345,1.125,0.5,1.291,0.851c14.838,31.309,29.643,62.632,44.449,93.957
	C893.698,560.345,861.699,564.108,829.699,567.872z"/>
<path fill-rule="evenodd" clip-rule="evenodd" fill="#FCB456" d="M-57.531,784.059c0,0,1.628-0.607,4.823-1.764
	C12.241,758.793,724.677,508.282,1565,514.823v115.785c0,0-437.744-81.126-1622.531,225.577V784.059z"/>
</svg>
