<?xml version="1.0" encoding="utf-8"?>
<!-- Generator: Adobe Illustrator 16.0.0, SVG Export Plug-In . SVG Version: 6.00 Build 0)  -->
<!DOCTYPE svg PUBLIC "-//W3C//DTD SVG 1.1//EN" "http://www.w3.org/Graphics/SVG/1.1/DTD/svg11.dtd">
<svg version="1.1" id="Layer_1" xmlns="http://www.w3.org/2000/svg" xmlns:xlink="http://www.w3.org/1999/xlink" x="0px" y="0px"
	 width="514.361px" height="173.667px" viewBox="0 0 514.361 173.667" enable-background="new 0 0 514.361 173.667"
	 xml:space="preserve">
<g>
	<g>
		<g>
			<g>
				<polygon fill="#13204A" points="277.094,170.466 335.838,46.466 291.516,46.466 232.771,170.466 				"/>
			</g>
		</g>
	</g>
	<g>
		<g>
			<polygon fill="#13204A" points="394.723,170.466 335.979,46.466 291.656,46.466 350.4,170.466 			"/>
		</g>
	</g>
</g>
<g>
	<g>
		<g>
			<polygon fill="#13204A" points="455.76,170.466 514.361,46.466 470.039,46.466 411.438,170.466 			"/>
		</g>
	</g>
	<g>
		<g>
			<g>
				<polygon fill="#13204A" points="468.264,109.034 438.492,46.466 394.17,46.466 446.102,155.783 				"/>
			</g>
		</g>
	</g>
</g>
<g>
	<g>
		<path fill="#13204A" d="M39.989,46.466c-0.029,0-0.136,0-0.136,0H0v124h39v-32c0,0,0.943,0,0.975,0
			c25.695,0,46.519-20.516,46.519-46.213C86.494,66.558,65.685,46.466,39.989,46.466z"/>
	</g>
</g>
<g>
	<g>
		<g>
			<path fill="#FBB03C" d="M171,109.466v-63c0,0-0.171,0-0.21,0c-35.229,0-63.737,28.308-63.737,63.536
				c0,35.23,28.744,63.663,63.974,63.663c35.23,0,63.974-28.688,63.974-63.916c0-0.014,0-0.283,0-0.283H171z"/>
		</g>
	</g>
	<g>
		<g>
			
				<rect x="185.615" y="47.969" transform="matrix(0.9659 0.2588 -0.2588 0.9659 19.4827 -46.6262)" fill="#13204A" width="2.407" height="5.419"/>
		</g>
	</g>
	<g>
		<g>
			
				<rect x="200.353" y="54.075" transform="matrix(0.8657 0.5006 -0.5006 0.8657 55.4973 -93.2702)" fill="#13204A" width="2.407" height="5.417"/>
		</g>
	</g>
	<g>
		<g>
			
				<rect x="213.009" y="63.787" transform="matrix(0.7068 0.7074 -0.7074 0.7068 109.8468 -132.0414)" fill="#13204A" width="2.41" height="5.417"/>
		</g>
	</g>
	<g>
		<g>
			
				<rect x="222.722" y="76.444" transform="matrix(0.4998 0.8662 -0.8662 0.4998 180.5706 -154.3604)" fill="#13204A" width="2.408" height="5.418"/>
		</g>
	</g>
	<g>
		<g>
			
				<rect x="228.827" y="91.182" transform="matrix(0.2585 0.966 -0.966 0.2585 261.2595 -152.5936)" fill="#13204A" width="2.408" height="5.418"/>
		</g>
	</g>
	<g>
		<rect x="161" y="13.466" fill="#13204A" width="19" height="19"/>
	</g>
	<g>
		<rect x="165" y="25.466" fill="#13204A" width="10" height="13"/>
	</g>
	<g>
		<g>
			<path fill="#13204A" d="M170.499,43.443c-11.978,0-21.722-9.744-21.722-21.721C148.776,9.744,158.521,0,170.499,0
				c11.977,0,21.722,9.744,21.722,21.723C192.221,33.699,182.476,43.443,170.499,43.443z M170.499,4.826
				c-9.316,0-16.897,7.58-16.897,16.896s7.581,16.896,16.897,16.896s16.896-7.58,16.896-16.896S179.814,4.826,170.499,4.826z"/>
		</g>
	</g>
	<g>
		
			<rect x="122.272" y="35.06" transform="matrix(0.848 -0.53 0.53 0.848 -2.6364 74.6559)" fill="#13204A" width="13.134" height="13.729"/>
	</g>
	<g>
		
			<rect x="127.634" y="39.661" transform="matrix(0.8481 -0.5298 0.5298 0.8481 -4.6502 76.9039)" fill="#13204A" width="8.358" height="13.804"/>
	</g>
</g>
</svg>
